<svg width="148" height="64" viewBox="0 0 148 64" fill="none" xmlns="http://www.w3.org/2000/svg">
<g clip-path="url(#clip0_1_3)">
<path d="M35.7514 10.1279L18.6482 0.0717444C18.4686 -0.0359998 18.2889 -0.0359998 18.1093 0.0717444L0.898276 10.056C0.359311 10.3793 0 10.9898 0 11.6363V31.3535C0 31.7126 0.215586 32.0717 0.503035 32.2513L18.2889 42.5948L0.754552 52.6868C0.395242 52.9023 0.395242 53.3692 0.754552 53.5847L18.1093 63.9281C18.2889 64.0358 18.4686 64.0358 18.6482 63.9281L35.6077 53.6924C36.1466 53.3692 36.5059 52.7586 36.5059 52.1122V32.3232C36.5059 31.964 36.2904 31.6049 35.967 31.4253L18.0374 21.2614L35.7514 11.0257C36.0748 10.8462 36.0748 10.3433 35.7514 10.1279Z" fill="#25D862"/>
<path d="M18.3608 42.5589L0.826429 52.6869C0.467118 52.9024 0.467118 53.3693 0.826429 53.5847L18.1811 63.8923C18.3608 64 18.5764 64 18.7201 63.8923L34.6016 53.4052C35.1047 53.046 35.1046 52.2918 34.5657 51.9686L18.3608 42.5589Z" fill="white"/>
<path d="M35.7514 10.128L18.6842 0.0718359C18.5045 -0.0359082 18.2889 -0.0359082 18.1452 0.0718359L2.084 10.4153C1.54504 10.7385 1.58097 11.5286 2.11993 11.8519L18.0374 21.2615L35.7514 11.0258C36.0748 10.8462 36.0748 10.3434 35.7514 10.128Z" fill="white"/>
<path d="M50.016 35.0527C48.8303 34.6936 47.8602 34.2626 47.1415 33.688L48.3991 30.8507C49.0818 31.3535 49.9082 31.7845 50.8784 32.0718C51.8485 32.3951 52.7827 32.5387 53.7529 32.5387C54.8308 32.5387 55.6213 32.3951 56.1243 32.0718C56.6273 31.7486 56.8789 31.3535 56.8789 30.8148C56.8789 30.4198 56.7351 30.0965 56.4118 29.8451C56.1243 29.5937 55.7291 29.3782 55.262 29.2346C54.7949 29.0909 54.1481 28.9113 53.3576 28.7318C52.136 28.4444 51.1299 28.1571 50.3394 27.8698C49.5489 27.5825 48.8662 27.1156 48.3273 26.4691C47.7524 25.8227 47.4649 24.9607 47.4649 23.8833C47.4649 22.9495 47.7164 22.0875 48.2195 21.3333C48.7225 20.5791 49.513 19.9686 50.5191 19.5017C51.5611 19.0707 52.7827 18.8193 54.2918 18.8193C55.3338 18.8193 56.3399 18.927 57.31 19.1785C58.2802 19.4299 59.1784 19.789 59.8971 20.2559L58.7473 23.0932C57.2382 22.2312 55.765 21.8361 54.2559 21.8361C53.2139 21.8361 52.4234 22.0157 51.9204 22.3389C51.4173 22.6622 51.1658 23.1291 51.1658 23.6678C51.1658 24.2065 51.4533 24.6375 52.0282 24.8889C52.6031 25.1762 53.5013 25.4276 54.6871 25.679C55.9087 25.9663 56.9148 26.2536 57.7053 26.541C58.4958 26.8283 59.1784 27.2952 59.7174 27.9416C60.2923 28.5881 60.5438 29.4141 60.5438 30.4916C60.5438 31.4254 60.2923 32.2514 59.7533 33.0415C59.2503 33.7957 58.4598 34.4063 57.4178 34.8732C56.3758 35.3042 55.1182 35.5556 53.6451 35.5556C52.4593 35.5915 51.2017 35.4119 50.016 35.0527Z" fill="white"/>
<path d="M87.2765 19.1066L81.9947 35.3042H77.9704L74.3773 24.3502L70.7123 35.3042H66.724L61.4062 19.1066H65.2867L68.9517 30.4916L72.7604 19.1066H76.2457L79.9466 30.5634L83.7193 19.1066H87.2765Z" fill="white"/>
<path d="M98.7385 31.8204H91.2289L89.7917 35.3042H85.9471L93.1692 19.1066H96.8701L104.128 35.3042H100.212L98.7385 31.8204ZM97.5528 28.9832L95.0017 22.7699L92.4506 28.9832H97.5528Z" fill="white"/>
<path d="M116.345 19.8249C117.387 20.2918 118.213 20.9742 118.788 21.8721C119.363 22.734 119.65 23.7755 119.65 24.9966C119.65 26.1818 119.363 27.2234 118.788 28.1212C118.213 29.0191 117.387 29.7015 116.345 30.1684C115.303 30.6352 114.045 30.8867 112.608 30.8867H109.338V35.3401H105.601V19.1066H112.608C114.045 19.1066 115.303 19.358 116.345 19.8249ZM114.979 27.0438C115.554 26.541 115.842 25.8586 115.842 24.9607C115.842 24.0629 115.554 23.3446 114.979 22.8777C114.404 22.3749 113.542 22.1594 112.428 22.1594H109.374V27.798H112.428C113.542 27.798 114.369 27.5466 114.979 27.0438Z" fill="white"/>
<path d="M121.914 19.1066H125.651V32.2514H133.771V35.3042H121.914V19.1066Z" fill="white"/>
<path d="M148 32.2873V35.3042H135.46V19.1066H147.713V22.1235H139.197V25.6431H146.706V28.5522H139.197V32.2873H148Z" fill="white"/>
<path d="M47.1415 39.6139H48.974C49.4411 39.6139 49.8364 39.7217 50.1957 39.9012C50.555 40.0808 50.8065 40.3322 51.0221 40.6554C51.2018 40.9787 51.3095 41.3378 51.3095 41.7688C51.3095 42.1998 51.2018 42.5589 51.0221 42.8822C50.8424 43.2054 50.555 43.4568 50.1957 43.6364C49.8364 43.8159 49.4411 43.9237 48.974 43.9237H47.1415V39.6139ZM48.9022 43.385C49.2615 43.385 49.5489 43.3131 49.8364 43.1695C50.0879 43.0258 50.3035 42.8462 50.4472 42.5948C50.5909 42.3434 50.6628 42.0561 50.6628 41.7329C50.6628 41.4097 50.5909 41.1223 50.4472 40.8709C50.3035 40.6195 50.0879 40.44 49.8364 40.2963C49.5849 40.1526 49.2615 40.0808 48.9022 40.0808H47.7524V43.3131H48.9022V43.385Z" fill="white"/>
<path d="M55.0104 42.4871H52.3515C52.3875 42.7744 52.5312 42.9899 52.7468 43.1695C52.9624 43.349 53.2139 43.4209 53.5373 43.4209C53.9325 43.4209 54.2559 43.2772 54.4715 43.0258L54.7948 43.4209C54.6511 43.6005 54.4715 43.7082 54.2559 43.8159C54.0403 43.9237 53.7888 43.9596 53.5373 43.9596C53.178 43.9596 52.8905 43.8878 52.6031 43.7441C52.3515 43.6005 52.1359 43.4209 51.9922 43.1336C51.8485 42.8822 51.7766 42.5948 51.7766 42.2716C51.7766 41.9484 51.8485 41.6611 51.9922 41.4097C52.1359 41.1583 52.3156 40.9428 52.5671 40.7991C52.8186 40.6554 53.1061 40.5836 53.3935 40.5836C53.681 40.5836 53.9684 40.6554 54.2199 40.7991C54.4715 40.9428 54.6511 41.1223 54.7948 41.4097C54.9386 41.6611 55.0104 41.9484 55.0104 42.2716C55.0104 42.3434 55.0104 42.4153 55.0104 42.4871ZM52.7108 41.4097C52.5312 41.5892 52.4234 41.8047 52.3875 42.092H54.4715C54.4355 41.8047 54.3277 41.5892 54.1481 41.4097C53.9684 41.2301 53.7169 41.1583 53.4295 41.1583C53.142 41.1583 52.8905 41.2301 52.7108 41.4097Z" fill="white"/>
<path d="M56.304 43.7441C56.0524 43.6004 55.8369 43.3849 55.6931 43.1335C55.5494 42.8821 55.4775 42.5948 55.4775 42.2716C55.4775 41.9484 55.5494 41.661 55.6931 41.4096C55.8369 41.1582 56.0524 40.9427 56.304 40.835C56.5555 40.6913 56.8429 40.6195 57.2022 40.6195C57.4897 40.6195 57.7771 40.6913 57.9927 40.7991C58.2083 40.9068 58.388 41.0864 58.5317 41.3019L58.0646 41.5892C57.9568 41.4455 57.849 41.3019 57.6693 41.2301C57.5256 41.1582 57.346 41.1223 57.1663 41.1223C56.9507 41.1223 56.7711 41.1582 56.5914 41.266C56.4117 41.3737 56.304 41.4815 56.1962 41.661C56.0884 41.8406 56.0524 42.0202 56.0524 42.2716C56.0524 42.4871 56.0884 42.7026 56.1962 42.8821C56.304 43.0617 56.4117 43.2054 56.5914 43.2772C56.7711 43.3849 56.9507 43.4209 57.1663 43.4209C57.346 43.4209 57.5256 43.3849 57.6693 43.3131C57.8131 43.2413 57.9568 43.1335 58.0646 42.954L58.5317 43.2413C58.388 43.4568 58.2083 43.6363 57.9927 43.7441C57.7771 43.8518 57.4897 43.9237 57.2022 43.9237C56.8789 43.9596 56.5555 43.8877 56.304 43.7441Z" fill="white"/>
<path d="M62.0889 42.4871H59.43C59.4659 42.7744 59.6096 42.9899 59.8252 43.1695C60.0408 43.349 60.2923 43.4209 60.6157 43.4209C61.0109 43.4209 61.3343 43.2772 61.5499 43.0258L61.8733 43.4209C61.7296 43.6005 61.5499 43.7082 61.3343 43.8159C61.1187 43.9237 60.8672 43.9596 60.6157 43.9596C60.2564 43.9596 59.9689 43.8878 59.6815 43.7441C59.43 43.6005 59.2144 43.4209 59.0707 43.1336C58.9269 42.8822 58.8551 42.5948 58.8551 42.2716C58.8551 41.9484 58.9269 41.6611 59.0707 41.4097C59.2144 41.1583 59.394 40.9428 59.6456 40.7991C59.8971 40.6554 60.1845 40.5836 60.472 40.5836C60.7594 40.5836 61.0469 40.6554 61.2984 40.7991C61.5499 40.9428 61.7296 41.1223 61.8733 41.4097C62.017 41.6611 62.0889 41.9484 62.0889 42.2716C62.0889 42.3434 62.0889 42.4153 62.0889 42.4871ZM59.7533 41.4097C59.5737 41.5892 59.4659 41.8047 59.43 42.092H61.514C61.478 41.8047 61.3702 41.5892 61.1906 41.4097C61.0109 41.2301 60.7594 41.1583 60.472 41.1583C60.1845 41.1583 59.9689 41.2301 59.7533 41.4097Z" fill="white"/>
<path d="M65.5023 40.9787C65.7538 41.2301 65.8616 41.5533 65.8616 42.0202V43.8878H65.2867V42.092C65.2867 41.7688 65.2149 41.5533 65.0712 41.3737C64.9274 41.2301 64.7118 41.1223 64.4244 41.1223C64.101 41.1223 63.8495 41.2301 63.6698 41.4097C63.4902 41.5892 63.3824 41.8765 63.3824 42.1998V43.8878H62.8075V40.6195H63.3824V41.1223C63.4902 40.9428 63.6698 40.835 63.8495 40.7273C64.0651 40.6195 64.2807 40.5836 64.5322 40.5836C64.9274 40.6195 65.2508 40.7632 65.5023 40.9787Z" fill="white"/>
<path d="M68.5565 43.7441C68.4846 43.8159 68.3768 43.8878 68.2331 43.9237C68.0893 43.9596 67.9816 43.9955 67.8378 43.9955C67.5145 43.9955 67.2629 43.9237 67.0833 43.7441C66.9036 43.5645 66.7958 43.3131 66.7958 42.9899V41.1942H66.2569V40.6913H66.7958V39.9731H67.3707V40.6913H68.3049V41.1942H67.3707V42.954C67.3707 43.1335 67.4067 43.2772 67.5145 43.349C67.5863 43.4568 67.73 43.4927 67.9097 43.4927C68.0894 43.4927 68.2331 43.4568 68.3768 43.349L68.5565 43.7441Z" fill="white"/>
<path d="M70.1374 40.7991C70.353 40.6913 70.5686 40.6554 70.856 40.6554V41.2301C70.8201 41.2301 70.7842 41.2301 70.7123 41.2301C70.3889 41.2301 70.1374 41.3378 69.9578 41.5174C69.7781 41.697 69.6703 41.9843 69.6703 42.3434V43.9596H69.0954V40.6913H69.6703V41.2301C69.7781 41.0146 69.9218 40.8709 70.1374 40.7991Z" fill="white"/>
<path d="M73.7305 40.9787C73.982 41.1941 74.0898 41.5174 74.0898 41.9843V43.9596H73.5149V43.5286C73.4071 43.6723 73.2634 43.78 73.0838 43.8877C72.9041 43.9596 72.6885 43.9955 72.437 43.9955C72.0777 43.9955 71.7902 43.9237 71.5747 43.7441C71.3591 43.5645 71.2513 43.349 71.2513 43.0617C71.2513 42.7744 71.3591 42.5589 71.5747 42.3793C71.7902 42.1998 72.1136 42.1279 72.5807 42.1279H73.5149V42.0202C73.5149 41.7688 73.4431 41.5533 73.2994 41.4455C73.1556 41.3019 72.94 41.2301 72.6526 41.2301C72.4729 41.2301 72.2574 41.266 72.0777 41.3378C71.898 41.4096 71.7543 41.4815 71.6106 41.5892L71.3591 41.1582C71.5387 41.0146 71.7184 40.9068 71.9699 40.835C72.2214 40.7632 72.437 40.7273 72.7245 40.7273C73.1556 40.6195 73.479 40.7632 73.7305 40.9787ZM73.1556 43.349C73.3353 43.2413 73.4431 43.0976 73.5149 42.918V42.4512H72.5807C72.0777 42.4512 71.8262 42.6307 71.8262 42.954C71.8262 43.1335 71.898 43.2413 72.0058 43.349C72.1496 43.4568 72.2933 43.4927 72.5448 43.4927C72.7963 43.4927 72.976 43.4568 73.1556 43.349Z" fill="white"/>
<path d="M74.9881 39.3625H75.563V43.9237H74.9881V39.3625Z" fill="white"/>
<path d="M76.5331 39.9371C76.4613 39.8653 76.4254 39.7576 76.4254 39.6498C76.4254 39.5421 76.4613 39.4343 76.5331 39.3625C76.605 39.2907 76.7128 39.2548 76.8206 39.2548C76.9284 39.2548 77.0362 39.2907 77.108 39.3625C77.1799 39.4343 77.2158 39.5062 77.2158 39.6139C77.2158 39.7217 77.1799 39.8294 77.108 39.9012C77.0362 39.9731 76.9284 40.009 76.8206 40.009C76.7128 40.0449 76.605 40.009 76.5331 39.9371ZM76.5331 40.6554H77.108V43.9237H76.5331V40.6554Z" fill="white"/>
<path d="M80.4496 43.4568V43.9596H77.7189V43.5645L79.6591 41.1582H77.7548V40.6554H80.4137V41.0505L78.4734 43.4209H80.4496V43.4568Z" fill="white"/>
<path d="M83.899 42.4871H81.2401C81.2761 42.7744 81.4198 42.9899 81.6354 43.1695C81.8509 43.349 82.1025 43.4209 82.4258 43.4209C82.8211 43.4209 83.1445 43.2772 83.3601 43.0258L83.6834 43.4209C83.5397 43.6005 83.36 43.7082 83.1445 43.8159C82.9289 43.9237 82.6774 43.9596 82.4258 43.9596C82.0665 43.9596 81.7791 43.8878 81.4916 43.7441C81.2401 43.6005 81.0245 43.4209 80.8808 43.1336C80.7371 42.8822 80.6652 42.5948 80.6652 42.2716C80.6652 41.9484 80.7371 41.6611 80.8808 41.4097C81.0245 41.1583 81.2042 40.9428 81.4557 40.7991C81.7072 40.6554 81.9947 40.5836 82.2821 40.5836C82.6055 40.5836 82.857 40.6554 83.1085 40.7991C83.3601 40.9428 83.5397 41.1223 83.6834 41.4097C83.8272 41.6611 83.899 41.9484 83.899 42.2716C83.9349 42.3434 83.9349 42.4153 83.899 42.4871ZM81.5994 41.4097C81.4198 41.5892 81.312 41.8047 81.276 42.092H83.3601C83.3241 41.8047 83.2163 41.5892 83.0367 41.4097C82.857 41.2301 82.6055 41.1583 82.3181 41.1583C82.0306 41.1223 81.7791 41.2301 81.5994 41.4097Z" fill="white"/>
<path d="M87.7436 39.3625V43.9237H87.1687V43.4209C87.025 43.6004 86.8813 43.7441 86.6657 43.8159C86.4501 43.9237 86.2345 43.9596 86.0189 43.9596C85.6956 43.9596 85.4081 43.8877 85.1566 43.7441C84.9051 43.6004 84.7254 43.4208 84.5817 43.1694C84.438 42.918 84.3661 42.6307 84.3661 42.3075C84.3661 41.9843 84.438 41.6969 84.5817 41.4455C84.7254 41.1941 84.9051 41.0146 85.1566 40.8709C85.4081 40.7272 85.6956 40.6554 86.0189 40.6554C86.2705 40.6554 86.486 40.6913 86.6657 40.7991C86.8454 40.8709 87.025 41.0146 87.1687 41.1941V39.3984H87.7436V39.3625ZM86.6298 43.3131C86.8094 43.2054 86.9172 43.0976 87.025 42.918C87.1328 42.7385 87.1687 42.5589 87.1687 42.3075C87.1687 42.092 87.1328 41.8765 87.025 41.6969C86.9172 41.5174 86.8094 41.3737 86.6298 41.3019C86.4501 41.1941 86.2705 41.1582 86.0549 41.1582C85.8393 41.1582 85.6596 41.1941 85.48 41.3019C85.3003 41.4096 85.1925 41.5174 85.0847 41.6969C84.9769 41.8765 84.941 42.0561 84.941 42.3075C84.941 42.523 84.9769 42.7385 85.0847 42.918C85.1925 43.0976 85.3003 43.2413 85.48 43.3131C85.6596 43.4208 85.8393 43.4568 86.0549 43.4568C86.2705 43.4568 86.4501 43.3849 86.6298 43.3131Z" fill="white"/>
<path d="M90.9415 43.8159C90.654 43.7082 90.4025 43.6005 90.2229 43.4209L90.4385 42.954C90.6181 43.0976 90.7978 43.2054 91.0852 43.3131C91.3367 43.4209 91.5882 43.4568 91.8757 43.4568C92.235 43.4568 92.4865 43.385 92.6662 43.2772C92.8458 43.1695 92.9177 42.9899 92.9177 42.8103C92.9177 42.6667 92.8818 42.5589 92.774 42.4512C92.6662 42.3434 92.5584 42.2716 92.4147 42.2357C92.2709 42.1998 92.0554 42.1279 91.8038 42.0561C91.4805 41.9843 91.2289 41.9125 91.0134 41.8047C90.7978 41.7329 90.654 41.5892 90.5103 41.4456C90.3666 41.266 90.2947 41.0505 90.2947 40.7991C90.2947 40.5836 90.3666 40.3681 90.4744 40.1886C90.5822 40.009 90.7618 39.8653 91.0134 39.7576C91.2649 39.6498 91.5523 39.578 91.9476 39.578C92.1991 39.578 92.4506 39.6139 92.7021 39.6857C92.9536 39.7576 93.1692 39.8294 93.3489 39.9731L93.1333 40.4759C92.9536 40.3681 92.774 40.2604 92.5584 40.2245C92.3428 40.1526 92.1631 40.1526 91.9476 40.1526C91.5882 40.1526 91.3367 40.2245 91.1571 40.3322C90.9774 40.4759 90.9056 40.6195 90.9056 40.835C90.9056 40.9787 90.9415 41.0864 91.0493 41.1942C91.1571 41.3019 91.2649 41.3737 91.4086 41.4097C91.5523 41.4456 91.7679 41.5174 92.0194 41.5892C92.3428 41.6611 92.5943 41.7329 92.8099 41.8406C92.9896 41.9125 93.1692 42.0202 93.3129 42.1998C93.4567 42.3434 93.5285 42.5589 93.5285 42.8462C93.5285 43.0617 93.4567 43.2772 93.3489 43.4568C93.2411 43.6364 93.0255 43.78 92.774 43.8878C92.5225 43.9955 92.1991 44.0673 91.8398 44.0673C91.5523 43.9596 91.2289 43.9237 90.9415 43.8159Z" fill="white"/>
<path d="M99.0978 40.6554L97.8762 43.9237H97.3013L96.3671 41.4456L95.3969 43.9237H94.858L93.6363 40.6554H94.2112L95.1454 43.2413L96.1156 40.6554H96.6186L97.5887 43.2772L98.5589 40.6554H99.0978Z" fill="white"/>
<path d="M101.829 40.9787C102.08 41.1941 102.188 41.5174 102.188 41.9843V43.9596H101.613V43.5286C101.505 43.6723 101.362 43.78 101.182 43.8877C101.002 43.9596 100.787 43.9955 100.535 43.9955C100.176 43.9955 99.8883 43.9237 99.6727 43.7441C99.4572 43.5645 99.3494 43.349 99.3494 43.0617C99.3494 42.7744 99.4572 42.5589 99.6727 42.3793C99.8883 42.1998 100.212 42.1279 100.679 42.1279H101.613V42.0202C101.613 41.7688 101.541 41.5533 101.397 41.4455C101.254 41.3019 101.038 41.2301 100.751 41.2301C100.571 41.2301 100.355 41.266 100.176 41.3378C99.9961 41.4096 99.8524 41.4815 99.7087 41.5892L99.4572 41.1582C99.6368 41.0146 99.8165 40.9068 100.068 40.835C100.32 40.7632 100.535 40.7273 100.823 40.7273C101.254 40.6195 101.577 40.7632 101.829 40.9787ZM101.254 43.349C101.433 43.2413 101.541 43.0976 101.613 42.918V42.4512H100.715C100.212 42.4512 99.9602 42.6307 99.9602 42.954C99.9602 43.1335 100.032 43.2413 100.14 43.349C100.284 43.4568 100.427 43.4927 100.679 43.4927C100.894 43.4927 101.074 43.4568 101.254 43.349Z" fill="white"/>
<path d="M105.673 40.835C105.925 40.9787 106.104 41.1583 106.248 41.4097C106.392 41.6611 106.464 41.9484 106.464 42.2716C106.464 42.5948 106.392 42.8822 106.248 43.1336C106.104 43.385 105.925 43.5645 105.673 43.7082C105.422 43.8519 105.134 43.9237 104.811 43.9237C104.559 43.9237 104.38 43.8878 104.164 43.78C103.984 43.6723 103.805 43.5645 103.661 43.385V45.073H103.086V40.6195H103.661V41.1223C103.805 40.9428 103.949 40.7991 104.164 40.7273C104.38 40.6195 104.595 40.5836 104.811 40.5836C105.134 40.6195 105.422 40.6914 105.673 40.835ZM105.35 43.3131C105.529 43.2054 105.637 43.0976 105.745 42.9181C105.853 42.7385 105.889 42.5589 105.889 42.3075C105.889 42.092 105.853 41.8765 105.745 41.697C105.637 41.5174 105.529 41.3737 105.35 41.3019C105.17 41.1942 104.991 41.1583 104.775 41.1583C104.559 41.1583 104.38 41.1942 104.236 41.3019C104.056 41.4097 103.949 41.5174 103.841 41.697C103.733 41.8765 103.697 42.0561 103.697 42.3075C103.697 42.523 103.733 42.7385 103.841 42.9181C103.949 43.0976 104.056 43.2413 104.236 43.3131C104.416 43.4209 104.595 43.4568 104.811 43.4568C104.991 43.4568 105.17 43.385 105.35 43.3131Z" fill="white"/>
<path d="M109.769 40.835C110.021 40.9787 110.201 41.1583 110.344 41.4097C110.488 41.6611 110.56 41.9484 110.56 42.2716C110.56 42.5948 110.488 42.8822 110.344 43.1336C110.201 43.385 110.021 43.5645 109.769 43.7082C109.518 43.8519 109.23 43.9237 108.907 43.9237C108.656 43.9237 108.476 43.8878 108.26 43.78C108.081 43.6723 107.901 43.5645 107.757 43.385V45.073H107.182V40.6195H107.757V41.1223C107.901 40.9428 108.045 40.7991 108.26 40.7273C108.476 40.6195 108.691 40.5836 108.907 40.5836C109.23 40.6195 109.518 40.6914 109.769 40.835ZM109.41 43.3131C109.59 43.2054 109.698 43.0976 109.805 42.9181C109.913 42.7385 109.949 42.5589 109.949 42.3075C109.949 42.092 109.913 41.8765 109.805 41.697C109.698 41.5174 109.59 41.3737 109.41 41.3019C109.23 41.1942 109.051 41.1583 108.835 41.1583C108.62 41.1583 108.44 41.1942 108.296 41.3019C108.117 41.4097 108.009 41.5174 107.901 41.697C107.793 41.8765 107.757 42.0561 107.757 42.3075C107.757 42.523 107.793 42.7385 107.901 42.9181C108.009 43.0976 108.117 43.2413 108.296 43.3131C108.476 43.4209 108.656 43.4568 108.871 43.4568C109.051 43.4568 109.266 43.385 109.41 43.3131Z" fill="white"/>
<path d="M111.243 39.9371C111.171 39.8653 111.135 39.7576 111.135 39.6498C111.135 39.5421 111.171 39.4343 111.243 39.3625C111.314 39.2907 111.422 39.2548 111.53 39.2548C111.638 39.2548 111.746 39.2907 111.817 39.3625C111.889 39.4343 111.925 39.5062 111.925 39.6139C111.925 39.7217 111.889 39.8294 111.817 39.9012C111.746 39.9731 111.638 40.009 111.53 40.009C111.422 40.0449 111.314 40.009 111.243 39.9371ZM111.243 40.6554H111.817V43.9237H111.243V40.6554Z" fill="white"/>
<path d="M115.482 40.9787C115.734 41.2301 115.842 41.5533 115.842 42.0202V43.8878H115.267V42.092C115.267 41.7688 115.195 41.5533 115.051 41.3737C114.908 41.1942 114.692 41.1223 114.404 41.1223C114.081 41.1223 113.83 41.2301 113.65 41.4097C113.47 41.5892 113.362 41.8765 113.362 42.1998V43.8878H112.788V40.6195H113.362V41.1223C113.47 40.9428 113.65 40.835 113.83 40.7273C114.045 40.6195 114.261 40.5836 114.512 40.5836C114.908 40.6195 115.231 40.7632 115.482 40.9787Z" fill="white"/>
<path d="M119.938 40.6554V43.4568C119.938 44.0314 119.794 44.4624 119.507 44.7138C119.219 45.0011 118.788 45.1089 118.249 45.1089C117.926 45.1089 117.638 45.073 117.387 44.9652C117.099 44.8934 116.884 44.7497 116.704 44.6061L116.992 44.1392C117.135 44.2828 117.315 44.3906 117.566 44.4624C117.782 44.5342 118.034 44.5701 118.249 44.5701C118.644 44.5701 118.896 44.4624 119.111 44.2828C119.291 44.1033 119.399 43.8159 119.399 43.4568V43.2054C119.255 43.385 119.076 43.4927 118.896 43.6005C118.68 43.6723 118.465 43.7441 118.249 43.7441C117.926 43.7441 117.638 43.6723 117.387 43.5286C117.135 43.385 116.92 43.2054 116.776 42.954C116.632 42.7026 116.56 42.4512 116.56 42.128C116.56 41.8047 116.632 41.5533 116.776 41.3019C116.92 41.0505 117.135 40.8709 117.387 40.7632C117.638 40.6195 117.926 40.5836 118.249 40.5836C118.501 40.5836 118.716 40.6195 118.932 40.7273C119.147 40.835 119.327 40.9428 119.435 41.1223V40.6195H119.938V40.6554ZM118.788 43.1336C118.968 43.0258 119.076 42.9181 119.183 42.7385C119.291 42.5589 119.327 42.3794 119.327 42.1998C119.327 41.8765 119.219 41.6251 119.004 41.4456C118.788 41.266 118.537 41.1583 118.213 41.1583C117.89 41.1583 117.602 41.266 117.387 41.4456C117.171 41.6251 117.063 41.9125 117.063 42.1998C117.063 42.4153 117.099 42.5948 117.207 42.7385C117.315 42.9181 117.423 43.0258 117.602 43.1336C117.782 43.2413 117.962 43.2772 118.177 43.2772C118.429 43.2772 118.644 43.2413 118.788 43.1336Z" fill="white"/>
<path d="M125.795 40.009C126.118 40.2604 126.262 40.6554 126.262 41.1223C126.262 41.5892 126.118 41.9484 125.795 42.2357C125.471 42.4871 125.04 42.6308 124.465 42.6308H123.387V43.9237H122.776V39.6139H124.465C125.04 39.6139 125.471 39.7576 125.795 40.009ZM125.328 41.8406C125.543 41.6611 125.651 41.4456 125.651 41.1223C125.651 40.7991 125.543 40.5836 125.328 40.404C125.112 40.2245 124.824 40.1526 124.429 40.1526H123.387V42.092H124.429C124.824 42.092 125.148 42.0202 125.328 41.8406Z" fill="white"/>
<path d="M126.908 39.3625H127.483V43.9237H126.908V39.3625Z" fill="white"/>
<path d="M130.717 40.9787C130.969 41.1941 131.076 41.5174 131.076 41.9843V43.9596H130.502V43.5286C130.394 43.6723 130.25 43.78 130.07 43.8877C129.891 43.9596 129.675 43.9955 129.424 43.9955C129.064 43.9955 128.777 43.9237 128.561 43.7441C128.346 43.5645 128.238 43.349 128.238 43.0617C128.238 42.7744 128.346 42.5589 128.561 42.3793C128.777 42.1998 129.1 42.1279 129.567 42.1279H130.502V42.0202C130.502 41.7688 130.43 41.5533 130.286 41.4455C130.142 41.3019 129.927 41.2301 129.639 41.2301C129.46 41.2301 129.244 41.266 129.064 41.3378C128.885 41.4096 128.741 41.4815 128.597 41.5892L128.346 41.1582C128.525 41.0146 128.705 40.9068 128.957 40.835C129.208 40.7632 129.424 40.7273 129.711 40.7273C130.106 40.6195 130.466 40.7632 130.717 40.9787ZM130.106 43.349C130.286 43.2413 130.394 43.0976 130.466 42.918V42.4512H129.567C129.064 42.4512 128.813 42.6307 128.813 42.954C128.813 43.1335 128.885 43.2413 128.992 43.349C129.136 43.4568 129.28 43.4927 129.531 43.4927C129.783 43.4927 129.963 43.4568 130.106 43.349Z" fill="white"/>
<path d="M133.771 43.7441C133.699 43.8159 133.592 43.8878 133.448 43.9237C133.304 43.9596 133.196 43.9955 133.053 43.9955C132.729 43.9955 132.478 43.9237 132.298 43.7441C132.118 43.5645 132.011 43.3131 132.011 42.9899V41.1942H131.472V40.6913H132.011V39.9731H132.586V40.6913H133.52V41.1942H132.586V42.954C132.586 43.1335 132.622 43.2772 132.729 43.349C132.801 43.4568 132.945 43.4927 133.125 43.4927C133.304 43.4927 133.448 43.4568 133.592 43.349L133.771 43.7441Z" fill="white"/>
<path d="M135.101 40.3681V40.6554H136.035V41.1582H135.101V43.9237H134.526V41.1582H133.987V40.6554H134.526V40.3681C134.526 40.0449 134.634 39.7935 134.813 39.6139C134.993 39.4343 135.28 39.3266 135.604 39.3266C135.748 39.3266 135.855 39.3266 135.963 39.3625C136.071 39.3984 136.179 39.4343 136.251 39.5062L136.071 39.9731C135.927 39.8653 135.783 39.8294 135.604 39.8294C135.28 39.7935 135.101 40.009 135.101 40.3681Z" fill="white"/>
<path d="M137.005 43.7441C136.754 43.6004 136.538 43.3849 136.394 43.1335C136.251 42.8821 136.179 42.5948 136.179 42.2716C136.179 41.9484 136.251 41.661 136.394 41.4096C136.538 41.1582 136.754 40.9427 137.005 40.835C137.257 40.6913 137.544 40.6195 137.867 40.6195C138.191 40.6195 138.478 40.6913 138.73 40.835C138.981 40.9787 139.197 41.1582 139.341 41.4096C139.484 41.661 139.556 41.9484 139.556 42.2716C139.556 42.5948 139.484 42.8821 139.341 43.1335C139.197 43.3849 138.981 43.6004 138.73 43.7441C138.478 43.8877 138.191 43.9596 137.867 43.9596C137.544 43.9596 137.257 43.8877 137.005 43.7441ZM138.442 43.3131C138.622 43.2054 138.73 43.0976 138.838 42.918C138.945 42.7385 138.981 42.5589 138.981 42.3075C138.981 42.092 138.945 41.8765 138.838 41.6969C138.73 41.5174 138.622 41.3737 138.442 41.3019C138.263 41.1941 138.083 41.1582 137.867 41.1582C137.652 41.1582 137.472 41.1941 137.293 41.3019C137.113 41.4096 137.005 41.5174 136.897 41.6969C136.79 41.8765 136.754 42.0561 136.754 42.3075C136.754 42.523 136.79 42.7385 136.897 42.918C137.005 43.0976 137.113 43.2413 137.293 43.3131C137.472 43.4209 137.652 43.4568 137.867 43.4568C138.083 43.4568 138.299 43.3849 138.442 43.3131Z" fill="white"/>
<path d="M141.281 40.7991C141.496 40.6913 141.712 40.6554 142 40.6554V41.2301C141.964 41.2301 141.928 41.2301 141.856 41.2301C141.532 41.2301 141.281 41.3378 141.101 41.5174C140.922 41.697 140.814 41.9843 140.814 42.3434V43.9596H140.239V40.6913H140.814V41.2301C140.922 41.0146 141.065 40.8709 141.281 40.7991Z" fill="white"/>
<path d="M147.641 40.9787C147.892 41.2301 148 41.5533 148 42.0202V43.8878H147.425V42.092C147.425 41.7688 147.353 41.5533 147.21 41.3737C147.066 41.2301 146.85 41.1223 146.599 41.1223C146.311 41.1223 146.06 41.2301 145.88 41.4097C145.7 41.5892 145.629 41.8765 145.629 42.1998V43.8878H145.054V42.092C145.054 41.7688 144.982 41.5533 144.838 41.3737C144.694 41.2301 144.479 41.1223 144.227 41.1223C143.94 41.1223 143.688 41.2301 143.509 41.4097C143.329 41.5892 143.257 41.8765 143.257 42.1998V43.8878H142.682V40.6195H143.257V41.1223C143.365 40.9428 143.545 40.835 143.724 40.7273C143.904 40.6554 144.119 40.5836 144.371 40.5836C144.622 40.5836 144.838 40.6195 145.054 40.7273C145.233 40.835 145.413 40.9787 145.521 41.1942C145.629 41.0146 145.808 40.8709 146.024 40.7632C146.239 40.6554 146.491 40.6195 146.778 40.6195C147.066 40.6195 147.389 40.7632 147.641 40.9787Z" fill="white"/>
</g>
<defs>
<clipPath id="clip0_1_3">
<rect width="148" height="64" fill="white"/>
</clipPath>
</defs>
</svg>
