<svg width="52" height="52" viewBox="0 0 52 52" fill="none" xmlns="http://www.w3.org/2000/svg">
<path d="M31.047 37.7813C30.5214 37.7813 29.9962 37.5786 29.5985 37.1742C28.8119 36.3743 28.8228 35.0882 29.6227 34.3017L36.4506 27.5877C36.83 27.2074 37.039 26.7033 37.039 26.1675C37.039 25.6332 36.8314 25.1305 36.4541 24.7506L29.6303 18.1122C28.8262 17.33 28.8085 16.044 29.5908 15.2398C30.373 14.4358 31.659 14.418 32.4632 15.2003L39.2972 21.8487C39.3031 21.8545 39.3091 21.8603 39.3149 21.8662C40.4669 23.0148 41.1014 24.5424 41.1014 26.1675C41.1014 27.7926 40.4669 29.3202 39.3149 30.4686C39.3115 30.472 39.3083 30.4752 39.3049 30.4785L32.4709 37.1985C32.0755 37.5874 31.5611 37.7813 31.047 37.7813ZM31.0469 28.0313L16.4219 28.0313C15.3 28.0313 14.3906 27.122 14.3906 26.0001C14.3906 24.8782 15.3 23.9688 16.4219 23.9688L31.0469 23.9688C32.1687 23.9688 33.0781 24.8782 33.0781 26.0001C33.0781 27.122 32.1687 28.0313 31.0469 28.0313Z" fill="black"/>
</svg>
