<svg width="52" height="52" viewBox="0 0 52 52" fill="none" xmlns="http://www.w3.org/2000/svg">
<path d="M22.953 14.2187C23.4786 14.2187 24.0038 14.4215 24.4015 14.8259C25.1881 15.6258 25.1772 16.9119 24.3773 17.6984L17.5494 24.4124C17.17 24.7927 16.961 25.2968 16.961 25.8326C16.961 26.3668 17.1686 26.8696 17.5459 27.2495L24.3697 33.8878C25.1738 34.6701 25.1915 35.9561 24.4092 36.7602C23.627 37.5643 22.341 37.5821 21.5368 36.7997L14.7028 30.1514C14.6969 30.1456 14.6909 30.1398 14.6851 30.1339C13.5331 28.9853 12.8986 27.4577 12.8986 25.8326C12.8986 24.2075 13.5331 22.6799 14.6851 21.5315C14.6885 21.5281 14.6917 21.5248 14.6951 21.5216L21.5291 14.8016C21.9245 14.4127 22.4389 14.2187 22.953 14.2187ZM22.9531 23.9687L37.5781 23.9687C38.7 23.9687 39.6094 24.8781 39.6094 26C39.6094 27.1219 38.7 28.0312 37.5781 28.0312L22.9531 28.0312C21.8313 28.0312 20.9219 27.1219 20.9219 26C20.9219 24.8781 21.8313 23.9687 22.9531 23.9687Z" fill="black"/>
</svg>
