<svg width="27" height="24" viewBox="0 0 27 24" fill="none" xmlns="http://www.w3.org/2000/svg">
<path d="M10.1256 0.030907C10.6512 0.0325241 11.1757 0.236858 11.5722 0.642498C12.3563 1.44482 12.3415 2.73086 11.5392 3.51489L4.69063 10.2078C4.31003 10.587 4.09956 11.0904 4.09792 11.6262C4.09627 12.1605 4.30232 12.6638 4.67845 13.0449L11.4818 19.7042C12.2834 20.4889 12.2972 21.7749 11.5124 22.5767C10.7277 23.3783 9.44171 23.3921 8.63995 22.6073L1.82639 15.938C1.82052 15.9322 1.81455 15.9264 1.80878 15.9205C0.660293 14.7684 0.0305354 13.2388 0.0355353 11.6137C0.0405353 9.98865 0.679693 8.46302 1.83524 7.31811C1.83861 7.31476 1.84187 7.31152 1.84523 7.30828L8.69991 0.60939C9.09649 0.221727 9.61149 0.0293253 10.1256 0.030907ZM10.0957 9.78082L24.7206 9.82581C25.8425 9.82926 26.7491 10.7414 26.7456 11.8633C26.7422 12.9851 25.83 13.8917 24.7081 13.8883L10.0832 13.8433C8.96135 13.8398 8.05476 12.9276 8.05822 11.8058C8.06167 10.684 8.97385 9.77736 10.0957 9.78082Z" fill="#25D862"/>
</svg>
