<svg width="17" height="14" viewBox="0 0 17 14" fill="none" xmlns="http://www.w3.org/2000/svg">
<g clip-path="url(#clip0_325_24)">
<path d="M4.05414 5.94631L4.05764 6.36603L2.05502 6.37774C1.77854 6.37936 1.55593 6.5686 1.55786 6.80039C1.55979 7.03218 1.78552 7.21879 2.06201 7.21718L4.06462 7.20546L4.06812 7.62518C4.07197 8.08813 4.52419 8.46199 5.07641 8.45876L6.07772 8.4529C6.62994 8.44967 7.07589 8.07056 7.07204 7.60761L7.06855 7.18789L14.0777 7.14689C14.3542 7.14528 14.5768 6.95604 14.5749 6.72425C14.5729 6.49246 14.3472 6.30584 14.0707 6.30746L7.06156 6.34846L7.05807 5.92874C7.05421 5.46579 6.60199 5.09193 6.04977 5.09516L5.04847 5.10102C4.49624 5.10425 4.05029 5.48336 4.05414 5.94631ZM6.05676 5.9346L6.07073 7.61347L5.06942 7.61932L5.05545 5.94045L6.05676 5.9346ZM9.02924 2.13957L9.03274 2.55929L2.02358 2.60028C1.7471 2.6019 1.52449 2.79114 1.52642 3.02293C1.52835 3.25472 1.75408 3.44134 2.03057 3.43972L9.03972 3.39872L9.04322 3.81844C9.04707 4.28139 9.49929 4.65525 10.0515 4.65202L11.0528 4.64616C11.605 4.64293 12.051 4.26382 12.0471 3.80087L12.0436 3.38115L14.0463 3.36944C14.3227 3.36782 14.5454 3.17858 14.5434 2.94679C14.5415 2.715 14.3158 2.52839 14.0393 2.53L12.0367 2.54172L12.0332 2.122C12.0293 1.65905 11.5771 1.28519 11.0249 1.28842L10.0236 1.29428C9.47134 1.29751 9.02539 1.67662 9.02924 2.13957ZM11.0319 2.12786L11.0458 3.80672L10.0445 3.81258L10.0306 2.13371L11.0319 2.12786ZM9.09212 9.69448L9.09561 10.1142L2.08646 10.1552C1.80997 10.1568 1.58737 10.3461 1.5893 10.5778C1.59123 10.8096 1.81696 10.9963 2.09345 10.9946L9.1026 10.9536L9.10609 11.3734C9.10995 11.8363 9.56217 12.2102 10.1144 12.2069L11.1157 12.2011C11.6679 12.1978 12.1139 11.8187 12.11 11.3558L12.1065 10.9361L14.1091 10.9244C14.3856 10.9227 14.6082 10.7335 14.6063 10.5017C14.6044 10.2699 14.3786 10.0833 14.1022 10.0849L12.0995 10.0966L12.096 9.67691C12.0922 9.21396 11.64 8.8401 11.0877 8.84333L10.0864 8.84919C9.53422 8.85242 9.08827 9.23153 9.09212 9.69448ZM11.0947 9.68277L11.1087 11.3616L10.1074 11.3675L10.0934 9.68863L11.0947 9.68277Z" fill="#25D862"/>
</g>
<defs>
<clipPath id="clip0_325_24">
<rect width="13.4314" height="16.0212" fill="white" transform="matrix(-0.00832226 -0.999965 0.999983 -0.00584908 0.111816 13.5247)"/>
</clipPath>
</defs>
</svg>
