<svg width="39" height="39" viewBox="0 0 39 39" fill="none" xmlns="http://www.w3.org/2000/svg">
<path d="M37.4742 10.7444C38.3154 10.7444 38.9974 10.0625 38.9974 9.22122V7.62185C38.9974 3.41915 35.5781 0 31.3755 0C31.3755 0 7.4985 0.00357955 7.43963 0.0105102C5.42983 0.0807302 3.49924 0.943173 2.10763 2.40134C0.681218 3.89592 -0.0624136 5.83984 0.00757797 7.88513C0.00468387 7.9239 0.00316065 29.8549 0.00316065 29.8549C0.00316065 34.8975 4.10563 39 9.14822 39H31.3755C35.5782 39 38.9974 35.5808 38.9974 31.3782V19.8133C38.9974 15.6106 35.5782 12.1915 31.3755 12.1915H7.61914C5.17355 12.1915 3.16855 10.28 3.05453 7.83982C2.99658 6.59901 3.44295 5.41456 4.31134 4.50459C5.19228 3.58153 6.42951 3.05221 7.70566 3.05221C7.75067 3.05221 31.3754 3.04642 31.3754 3.04642C33.8983 3.04642 35.9508 5.09895 35.9508 7.62185V9.22122C35.951 10.0625 36.6329 10.7444 37.4742 10.7444V10.7444ZM7.61914 15.2379H31.3755C33.8983 15.2379 35.9509 17.2904 35.9509 19.8133V31.3782C35.9509 33.9011 33.8983 35.9536 31.3755 35.9536H9.14822C5.78542 35.9536 3.04958 33.2177 3.04958 29.8549V13.7209C4.3236 14.6752 5.9066 15.2379 7.61914 15.2379V15.2379ZM32.9045 25.5957C32.9045 26.6473 32.0521 27.4998 31.0005 27.4998C28.4749 27.3995 28.4756 23.7916 31.0005 23.6917C32.0521 23.6917 32.9045 24.5442 32.9045 25.5957ZM32.9045 7.62185C32.9045 6.78058 32.2226 6.09863 31.3813 6.09863H7.61922C5.59822 6.17906 5.59974 9.06532 7.61922 9.14506H31.3813C32.2225 9.14506 32.9045 8.46311 32.9045 7.62185Z" fill="#25D862"/>
</svg>
