<svg width="31" height="31" viewBox="0 0 31 31" fill="none" xmlns="http://www.w3.org/2000/svg">
<path d="M14.3258 0.04C14.9158 0.04 15.4958 0.04 16.0858 0.04C16.1658 0.06 16.2359 0.08 16.3159 0.09C18.8959 0.27 21.2758 1.08 23.4158 2.52C26.9758 4.92 29.1759 8.23 29.9759 12.46C30.0859 13.02 30.1359 13.59 30.2159 14.16V15.74C30.1959 15.84 30.1758 15.95 30.1658 16.05C30.0758 17.53 29.7558 18.96 29.2458 20.35C28.3958 22.65 27.0958 24.65 25.3258 26.35C24.0058 27.62 22.5159 28.64 20.8159 29.33C20.1659 29.59 19.5059 29.8 18.8459 30.03H18.7259C18.7259 27.91 18.7259 25.79 18.7259 23.67C18.7259 22.94 18.5159 22.27 18.0659 21.68C17.9259 21.5 17.7958 21.3 17.6458 21.09C17.7358 21.07 17.7758 21.06 17.8258 21.05C18.7658 20.88 19.6858 20.63 20.5558 20.2C23.3658 18.83 24.7858 15.66 23.9158 12.65C23.6758 11.81 23.2459 11.05 22.7559 10.33C22.6259 10.14 22.6158 9.96 22.6458 9.73C22.7358 9.18 22.8158 8.61 22.8258 8.05C22.8258 7.4 22.6659 6.77 22.4059 6.15C21.9759 6.23 21.5459 6.24 21.1859 6.4C20.3759 6.75 19.6058 7.19 18.8058 7.58C18.6358 7.66 18.4158 7.69 18.2358 7.66C17.4258 7.55 16.6259 7.37 15.8159 7.29C14.6159 7.18 13.4259 7.36 12.2559 7.66C12.0259 7.72 11.8258 7.7 11.6158 7.56C11.3058 7.36 10.9759 7.18 10.6559 6.99C9.84585 6.52 8.99585 6.18 8.02585 6.19C7.57585 7.36 7.46584 8.56 7.79584 9.79C7.83584 9.93 7.80586 10.13 7.72586 10.24C6.90586 11.3 6.47584 12.5 6.36584 13.82C6.19584 15.73 6.71586 17.41 8.03586 18.82C9.05586 19.91 10.3559 20.5 11.7859 20.85C12.1059 20.93 12.4359 20.99 12.7859 21.07C12.7359 21.15 12.7058 21.2 12.6758 21.25C12.2658 21.79 11.8858 22.34 11.7958 23.04C11.7958 23.1 11.7158 23.18 11.6658 23.2C10.9758 23.44 10.2959 23.48 9.71585 22.96C9.44585 22.73 9.27586 22.39 9.03586 22.12C8.65586 21.7 8.29585 21.26 7.86584 20.91C7.32584 20.47 6.67585 20.27 5.93585 20.34L6.09586 22.07C6.51586 22.09 6.84583 22.25 7.10583 22.54C7.35583 22.83 7.58585 23.13 7.80585 23.44C8.60585 24.6 9.68583 25.19 11.1058 25.12C11.3058 25.12 11.5059 25.07 11.7259 25.05V30H11.6058C11.5458 29.97 11.4858 29.94 11.4258 29.92C8.43584 29.08 5.95585 27.44 3.96585 25.07C2.09585 22.85 0.925831 20.3 0.445831 17.44C0.345831 16.87 0.30584 16.28 0.23584 15.7V14.12C0.25584 13.91 0.285847 13.7 0.305847 13.49C0.595847 10.83 1.50586 8.4 3.09586 6.24C5.49586 2.99 8.67585 0.97 12.6559 0.24C13.2159 0.14 13.7958 0.08 14.3558 0L14.3258 0.04Z" fill="white"/>
</svg>
