<svg width="39" height="39" viewBox="0 0 39 39" fill="none" xmlns="http://www.w3.org/2000/svg">
<g clip-path="url(#clip0_11_807)">
<path d="M14.1404 32.8801C13.7435 32.8801 13.3579 32.7247 13.0705 32.44C12.7125 32.0855 12.5534 31.5766 12.6456 31.0813L13.4424 26.8014C13.4436 26.7948 13.4449 26.7882 13.4462 26.7816C13.8732 24.6454 14.9132 22.702 16.4537 21.1616L23.3651 14.2103C25.4341 12.0538 29.1484 12.0534 31.2166 14.2072C33.3696 16.273 33.3696 19.99 31.2166 22.0556L24.3051 29.0069C22.7616 30.5504 20.8183 31.5903 18.682 32.0173L14.4332 32.8515C14.3358 32.8708 14.2377 32.8801 14.1404 32.8801ZM16.43 27.3685L16.045 29.4363L18.0911 29.0346C19.6315 28.7267 21.0374 27.9743 22.1518 26.8599L29.0633 19.9086C30.0401 18.9716 30.0406 17.294 29.0664 16.3577H29.0663C28.1325 15.3844 26.4522 15.3844 25.5185 16.3577L18.607 23.3089C17.4917 24.4241 16.7401 25.8267 16.43 27.3685ZM29.8772 38.962H9.12281C4.09249 38.962 0 34.8695 0 29.8392V9.16083C0 4.13052 4.09249 0.0380249 9.12281 0.0380249H29.8772C34.9075 0.0380249 39 4.13052 39 9.16083V29.8392C39 34.8695 34.9075 38.962 29.8772 38.962ZM9.12281 3.07896C5.76926 3.07896 3.04094 5.80729 3.04094 9.16083V29.8392C3.04094 33.1927 5.76926 35.9211 9.12281 35.9211H29.8772C33.2307 35.9211 35.9591 33.1927 35.9591 29.8392V9.16083C35.9591 5.80729 33.2307 3.07896 29.8772 3.07896H9.12281ZM15.5088 10.2252V7.64036C15.4285 5.62301 12.5474 5.62453 12.4678 7.64036V10.2252C12.4678 11.4827 11.4447 12.5059 10.1871 12.5059H7.60234C5.58498 12.5861 5.5865 15.4672 7.60234 15.5468H10.1871C13.1215 15.5468 15.5088 13.1595 15.5088 10.2252Z" fill="#25D862"/>
</g>
<defs>
<clipPath id="clip0_11_807">
<rect width="39" height="39" fill="white"/>
</clipPath>
</defs>
</svg>
