<svg width="39" height="39" viewBox="0 0 39 39" fill="none" xmlns="http://www.w3.org/2000/svg">
<path d="M25.2889 39C22.8396 39 20.435 38.3458 18.3354 37.1082C16.2989 35.9077 14.5969 34.1917 13.4132 32.1457C12.992 31.4173 13.2408 30.4854 13.9691 30.0641C14.6975 29.6428 15.6294 29.8917 16.0507 30.6199C17.9535 33.9096 21.4935 35.9531 25.2889 35.9531C31.1691 35.9531 35.953 31.1692 35.953 25.2891C35.953 19.4089 31.1691 14.625 25.2889 14.625H16.1483C15.3069 14.625 14.6249 13.943 14.6249 13.1016C14.6249 12.2602 15.3069 11.5781 16.1483 11.5781H25.2889C32.8492 11.5781 38.9999 17.7289 38.9999 25.2891C38.9999 32.8493 32.8492 39 25.2889 39Z" fill="#25D862"/>
<path d="M22.8516 27.4219H13.7109C6.15073 27.4219 0 21.2711 0 13.7109C0 6.15073 6.15073 0 13.7109 0C16.1603 0 18.5649 0.654164 20.6645 1.8918C22.701 3.09227 24.403 4.80827 25.5867 6.85433C26.0079 7.58268 25.7591 8.51457 25.0308 8.93587C24.3025 9.35718 23.3704 9.10833 22.9492 8.38005C21.0464 5.09041 17.5064 3.04688 13.7109 3.04688C7.83077 3.04688 3.04688 7.83077 3.04688 13.7109C3.04688 19.5911 7.83077 24.375 13.7109 24.375H22.8516C23.693 24.375 24.375 25.057 24.375 25.8984C24.375 26.7398 23.693 27.4219 22.8516 27.4219Z" fill="#25D862"/>
<path d="M12.7237 19.5459L9.95999 16.5878C9.16658 15.7386 8.72974 14.6306 8.72974 13.4682C8.72974 12.3057 9.16658 11.1979 9.95991 10.3486L12.7237 7.3905C13.2981 6.77572 14.2622 6.74296 14.8769 7.31737C15.4917 7.89179 15.5245 8.85582 14.9501 9.4706L12.1864 12.4287C11.9222 12.7115 11.7766 13.0808 11.7766 13.4682C11.7766 13.8557 11.9222 14.2249 12.1864 14.5078L14.9501 17.4658C15.5245 18.0806 15.4917 19.0447 14.8769 19.6191C14.2621 20.1935 13.2981 20.1606 12.7237 19.5459Z" fill="#25D862"/>
<path d="M24.0691 31.7367C23.4543 31.1623 23.4215 30.1983 23.9959 29.5835L26.7596 26.6254C27.0238 26.3425 27.1694 25.9733 27.1694 25.5858C27.1694 25.1983 27.0238 24.8291 26.7596 24.5462L23.9959 21.5882C23.4215 20.9734 23.4543 20.0093 24.0691 19.435C24.6838 18.8605 25.6478 18.8932 26.2224 19.5081L28.986 22.4662C29.7794 23.3155 30.2163 24.4234 30.2163 25.5858C30.2163 26.7483 29.7794 27.8562 28.986 28.7054L26.2224 31.6635C25.648 32.2784 24.6839 32.3111 24.0691 31.7367Z" fill="#25D862"/>
</svg>
