<svg width="39" height="39" viewBox="0 0 39 39" fill="none" xmlns="http://www.w3.org/2000/svg">
<g clip-path="url(#clip0_11_809)">
<path d="M7.61719 23.7656H4.57031C2.05024 23.7656 0 21.7154 0 19.1953V4.57031C0 2.05024 2.05024 0 4.57031 0H7.61719C10.1373 0 12.1875 2.05024 12.1875 4.57031V19.1953C12.1875 21.7154 10.1373 23.7656 7.61719 23.7656ZM4.57031 3.04688C3.73029 3.04688 3.04688 3.73029 3.04688 4.57031V19.1953C3.04688 20.0353 3.73029 20.7188 4.57031 20.7188H7.61719C8.45721 20.7188 9.14062 20.0353 9.14062 19.1953V4.57031C9.14062 3.73029 8.45721 3.04688 7.61719 3.04688H4.57031Z" fill="#25D862"/>
<path d="M19.1953 39H4.57031C2.05024 39 0 36.9498 0 34.4297V31.3828C0 28.8627 2.05024 26.8125 4.57031 26.8125H19.1953C21.7154 26.8125 23.7656 28.8627 23.7656 31.3828V34.4297C23.7656 36.9498 21.7154 39 19.1953 39ZM4.57031 29.8594C3.73029 29.8594 3.04688 30.5428 3.04688 31.3828V34.4297C3.04688 35.2697 3.73029 35.9531 4.57031 35.9531H19.1953C20.0353 35.9531 20.7188 35.2697 20.7188 34.4297V31.3828C20.7188 30.5428 20.0353 29.8594 19.1953 29.8594H4.57031Z" fill="#25D862"/>
<path d="M34.4297 39H31.3828C28.8627 39 26.8125 36.9498 26.8125 34.4297V31.3828C26.8125 28.8627 28.8627 26.8125 31.3828 26.8125H34.4297C36.9498 26.8125 39 28.8627 39 31.3828V34.4297C39 36.9498 36.9498 39 34.4297 39ZM31.3828 29.8594C30.5428 29.8594 29.8594 30.5428 29.8594 31.3828V34.4297C29.8594 35.2697 30.5428 35.9531 31.3828 35.9531H34.4297C35.2697 35.9531 35.9531 35.2697 35.9531 34.4297V31.3828C35.9531 30.5428 35.2697 29.8594 34.4297 29.8594H31.3828Z" fill="#25D862"/>
<path d="M34.4297 23.7656H19.8047C17.2846 23.7656 15.2344 21.7154 15.2344 19.1953V4.57031C15.2344 2.05024 17.2846 0 19.8047 0H34.4297C36.9498 0 39 2.05024 39 4.57031V19.1953C39 21.7154 36.9498 23.7656 34.4297 23.7656ZM19.8047 3.04688C18.9647 3.04688 18.2812 3.73029 18.2812 4.57031V19.1953C18.2812 20.0353 18.9647 20.7188 19.8047 20.7188H34.4297C35.2697 20.7188 35.9531 20.0353 35.9531 19.1953V4.57031C35.9531 3.73029 35.2697 3.04688 34.4297 3.04688H19.8047Z" fill="#25D862"/>
</g>
<defs>
<clipPath id="clip0_11_809">
<rect width="39" height="39" fill="white"/>
</clipPath>
</defs>
</svg>
