<svg width="53" height="52" viewBox="0 0 53 52" fill="none" xmlns="http://www.w3.org/2000/svg">
<ellipse cx="26.5507" cy="26" rx="25.9999" ry="26" fill="#3B3B3B"/>
<path d="M14.77 29.047C14.77 28.5214 14.9727 27.9962 15.3771 27.5985C16.177 26.8119 17.4631 26.8228 18.2496 27.6227L24.9636 34.4506C25.3439 34.83 25.848 35.039 26.3838 35.039C26.918 35.039 27.4207 34.8314 27.8007 34.4541L34.439 27.6303C35.2212 26.8262 36.5072 26.8085 37.3114 27.5908C38.1154 28.373 38.1332 29.659 37.3509 30.4632L30.7025 37.2972C30.6967 37.3031 30.6909 37.3091 30.685 37.3149C29.5365 38.4669 28.0089 39.1014 26.3838 39.1014C24.7587 39.1014 23.2311 38.4669 22.0826 37.3149C22.0793 37.3115 22.076 37.3083 22.0728 37.3049L15.3528 30.4709C14.964 30.0755 14.77 29.5611 14.77 29.047ZM24.5199 29.0469L24.5199 14.4219C24.5199 13.3 25.4293 12.3906 26.5512 12.3906C27.673 12.3906 28.5824 13.3 28.5824 14.4219L28.5824 29.0469C28.5824 30.1687 27.673 31.0781 26.5512 31.0781C25.4293 31.0781 24.5199 30.1687 24.5199 29.0469Z" fill="#25D862"/>
</svg>
