<svg width="39" height="39" viewBox="0 0 39 39" fill="none" xmlns="http://www.w3.org/2000/svg">
<path d="M39 37.4765C39 38.0803 38.6133 39 37.4769 39C36.7676 39 36.2071 38.3794 36.1909 38.3633C34.879 37.0512 32.8999 36.7197 31.2666 37.5385C29.3316 38.5082 27.2131 39 24.9707 39C20.4466 39.0001 16.305 36.9446 13.6323 33.3599C13.1292 32.6854 13.2684 31.7308 13.9429 31.2279C14.6174 30.7249 15.572 30.8641 16.0748 31.5386C18.1667 34.3442 21.4156 35.9531 24.9692 35.9531C26.735 35.9531 28.3938 35.5701 29.9014 34.8146C31.8303 33.8479 34.0351 33.8093 35.953 34.6059L35.9525 25.0318C35.9525 25.0269 35.9525 25.0219 35.9526 25.0171C35.9865 21.4825 34.309 18.1118 31.4649 16.0006C30.7894 15.4991 30.6483 14.5449 31.1498 13.8693C31.6514 13.1937 32.6057 13.0527 33.2811 13.5542C36.9027 16.2427 39.04 20.5353 38.9993 25.0381L39 37.4765ZM14.028 28.1836C11.7868 28.1836 9.66865 27.6919 7.73343 26.7221C7.13525 26.4223 6.49076 26.2772 5.84962 26.2772C3.9668 26.2772 2.5513 27.7846 2.5513 27.7846C2.26489 28.0464 1.89645 28.1836 1.52313 28.1837C1.31549 28.1837 1.1064 28.1412 0.908959 28.0543C0.356561 27.8107 0 27.2639 0 26.6601L0.000609375 14.2224C-0.033668 10.4468 1.41832 6.88251 4.08967 4.18542C6.76277 1.48642 10.315 0 14.0918 0C17.8957 0 21.4533 1.47659 24.1089 4.15784C26.7727 6.84732 28.2195 10.4243 28.1829 14.2299C28.1469 17.9784 26.6563 21.4904 23.9857 24.1189C21.3224 26.7402 17.7912 28.1836 14.0418 28.1836C14.0371 28.1836 14.0325 28.1836 14.028 28.1836ZM9.09858 23.9982C10.6061 24.7537 12.2652 25.1367 14.0294 25.1367C20.0913 25.1371 25.0783 20.2321 25.1363 14.2006C25.165 11.2144 24.0313 8.4093 21.9441 6.30193C19.8651 4.20286 17.0764 3.04688 14.0918 3.04688C11.1344 3.04688 8.35103 4.21269 6.2544 6.3295C4.15792 8.44624 3.01892 11.2415 3.04733 14.2006C3.04741 14.2054 3.04695 23.7895 3.04695 23.7895C3.93847 23.4192 4.89229 23.2293 5.85114 23.2293C6.95525 23.2293 8.06637 23.4808 9.09858 23.9982ZM20.0332 12.2637C18.9815 12.2637 18.1289 13.1163 18.1289 14.168C18.1289 15.2197 18.9815 16.0723 20.0332 16.0723C21.0849 16.0723 21.9375 15.2197 21.9375 14.168C21.9375 13.1163 21.085 12.2637 20.0332 12.2637ZM14.0156 12.2637C12.9639 12.2637 12.1113 13.1163 12.1113 14.168C12.1113 15.2197 12.9639 16.0723 14.0156 16.0723C15.0673 16.0723 15.9199 15.2197 15.9199 14.168C15.9199 13.1163 15.0674 12.2637 14.0156 12.2637ZM7.99805 12.2637C6.94634 12.2637 6.09375 13.1163 6.09375 14.168C6.09375 15.2197 6.94634 16.0723 7.99805 16.0723C9.04975 16.0723 9.90234 15.2197 9.90234 14.168C9.90234 13.1163 9.04983 12.2637 7.99805 12.2637Z" fill="#25D862"/>
</svg>
