<svg width="27" height="27" viewBox="0 0 27 27" fill="none" xmlns="http://www.w3.org/2000/svg">
<path d="M3.17644 16.2593C3.17593 15.6098 3.60861 15.1764 4.25814 15.1759L17.2487 15.1659C17.8982 15.1653 17.903 15.644 17.9035 16.2935C17.904 16.943 17.8999 17.3304 17.2503 17.3309L4.25982 17.341C3.61029 17.3415 3.17694 16.9088 3.17644 16.2593Z" fill="#E1E1E1"/>
<path d="M10.1778 9.70367C10.1773 9.05414 10.0989 8.67613 10.7484 8.67563L23.7389 8.66557C24.3885 8.66507 24.8218 9.09775 24.8223 9.74728C24.8228 10.3968 24.3901 10.8302 23.7406 10.8307L10.7501 10.8407C10.1005 10.8412 10.1783 10.3532 10.1778 9.70367Z" fill="#E1E1E1"/>
<path d="M3.2848 16.2592C3.28455 15.9344 3.39255 15.6096 3.60889 15.3929L6.74579 12.2511C7.17847 11.8178 7.69944 11.9979 8.13278 12.4306C8.56613 12.8633 8.69519 13.3321 8.26251 13.7655L5.77462 16.2572L8.26637 18.7451C8.69971 19.1778 8.56543 19.7226 8.13276 20.1559C7.70008 20.5893 7.18534 20.6945 6.752 20.2618L3.61023 17.1249C3.39356 16.9086 3.28505 16.5839 3.2848 16.2592Z" fill="#E1E1E1"/>
<path d="M19.4122 12.999C19.4119 12.6742 19.52 12.4576 19.7364 12.241L22.2243 9.74922L19.7325 7.26133C19.2992 6.82865 19.5159 6.27416 19.9486 5.84081C20.3812 5.40746 20.8135 5.31194 21.2469 5.74462L24.3886 8.88152C24.822 9.3142 24.8227 10.1802 24.39 10.6136L21.2531 13.7553C20.8204 14.1887 20.3819 14.2263 19.9486 13.7937C19.7319 13.5773 19.4124 13.3237 19.4122 12.999Z" fill="#E1E1E1"/>
</svg>
