<svg width="37" height="26" viewBox="0 0 37 26" fill="none" xmlns="http://www.w3.org/2000/svg">
<path d="M36.2208 8.70082C36.2108 8.28082 36.1808 7.86082 36.1508 7.43082C36.0108 5.64082 35.8108 3.59082 34.6308 2.16082C33.6208 0.940821 32.0508 0.660821 30.5708 0.490821C28.6908 0.280821 26.8008 0.150821 24.9008 0.0808214C21.0708 -0.0691787 17.2308 0.0208213 13.3908 0.100821C11.4208 0.140821 9.45078 0.190821 7.48078 0.340821C5.07078 0.530821 2.59079 0.890821 1.46079 3.30082C0.450791 5.46082 0.580766 8.21082 0.560766 10.5408C0.550766 12.6308 0.540774 14.7208 0.630774 16.8008C0.740773 19.5108 0.900776 23.0308 3.82078 24.2208C5.38078 24.8508 7.26079 25.0008 8.93079 25.1008C10.7008 25.2108 12.4708 25.2008 14.2308 25.2308C17.9408 25.2908 21.6508 25.1608 25.3608 25.0808C27.9408 25.0308 30.5808 25.0008 33.0408 24.1608C35.1708 23.4308 35.7208 21.1308 36.0108 19.1308C36.3008 17.1408 36.2208 15.1308 36.2208 13.1308C36.2208 11.6508 36.2608 10.1708 36.2108 8.69082L36.2208 8.70082ZM14.7908 18.0208V7.16082C17.8708 8.97082 20.9108 10.7608 24.0308 12.5908C20.9308 14.4108 17.8808 16.2008 14.7908 18.0208Z" fill="white"/>
</svg>
