<svg width="33" height="25" viewBox="0 0 33 25" fill="none" xmlns="http://www.w3.org/2000/svg">
<path d="M11.6601 0.03H11.8101C12.1301 0.59 12.4201 1.17 12.6701 1.77C15.1401 1.4 17.6101 1.41 20.0701 1.77C20.0901 1.72 20.1101 1.69 20.1301 1.65C20.2701 1.34 20.4101 1.04 20.5601 0.73C20.6801 0.49 20.8001 0.26 20.9301 0.02C20.9801 0.02 21.0301 0.02 21.0801 0.02C21.2001 0.05 21.3301 0.0700001 21.4501 0.1C22.5201 0.31 23.5701 0.57 24.6001 0.9C25.6001 1.22 26.5901 1.6 27.5501 2.04C27.6101 2.07 27.6601 2.11 27.6901 2.16C27.8701 2.44 28.0601 2.73 28.2401 3.01C28.8601 3.99 29.4201 5 29.9201 6.04C30.2801 6.8 30.6101 7.56 30.9001 8.35C31.2401 9.26 31.5301 10.18 31.7601 11.11C31.9301 11.77 32.0701 12.44 32.1801 13.11C32.2501 13.53 32.3101 13.94 32.3601 14.36C32.4001 14.67 32.4301 14.97 32.4601 15.28C32.4901 15.68 32.5401 16.08 32.5501 16.48C32.5601 17.23 32.5501 17.98 32.5501 18.73C32.5501 18.98 32.5401 19.22 32.5201 19.47C32.5001 19.82 32.4601 20.17 32.4401 20.51C32.4401 20.6 32.4101 20.66 32.3401 20.71C31.7701 21.12 31.1901 21.52 30.6001 21.89C29.6201 22.51 28.6001 23.06 27.5401 23.54C26.6201 23.96 25.6801 24.32 24.7201 24.64C24.5801 24.68 24.4501 24.73 24.3101 24.78H24.2101C24.1101 24.64 24.0101 24.5 23.9101 24.36C23.4901 23.75 23.1001 23.12 22.7501 22.47C22.6801 22.34 22.6101 22.21 22.5501 22.09C22.4901 21.98 22.5101 21.93 22.6201 21.88H22.6501C23.2801 21.63 23.8901 21.35 24.4801 21.03C24.6801 20.93 24.8701 20.82 25.0601 20.71C25.1701 20.64 25.1801 20.57 25.0701 20.49C24.9201 20.38 24.7801 20.26 24.6301 20.15C24.5701 20.1 24.5201 20.1 24.4501 20.13C24.3401 20.18 24.2201 20.23 24.1101 20.28C23.1501 20.7 22.1701 21.05 21.1501 21.31C20.5001 21.48 19.8401 21.62 19.1701 21.71C18.7501 21.77 18.3301 21.81 17.9101 21.85C17.5801 21.88 17.2501 21.91 16.9101 21.91C16.4801 21.91 16.0501 21.91 15.6201 21.89C15.2601 21.88 14.9001 21.85 14.5401 21.82C13.9201 21.77 13.3101 21.67 12.7101 21.55C11.6701 21.35 10.6601 21.06 9.67012 20.69C9.19012 20.51 8.72011 20.31 8.25011 20.11C8.17011 20.07 8.11012 20.08 8.04012 20.14C7.91012 20.25 7.77012 20.35 7.64012 20.45C7.62012 20.47 7.59012 20.48 7.58012 20.51C7.53012 20.56 7.54012 20.61 7.58012 20.66C7.60012 20.68 7.62012 20.69 7.64012 20.7C8.27012 21.06 8.92012 21.39 9.58012 21.67C9.75012 21.74 9.92012 21.8 10.0801 21.87C10.1701 21.91 10.1901 21.96 10.1501 22.05C10.1501 22.07 10.1301 22.09 10.1201 22.12C9.8801 22.55 9.64011 22.99 9.38011 23.42C9.10011 23.89 8.79011 24.33 8.47011 24.77H8.3701C8.2901 24.74 8.21011 24.71 8.13011 24.69C7.23011 24.4 6.34011 24.07 5.47011 23.68C4.76011 23.37 4.05012 23.03 3.37012 22.64C2.81012 22.33 2.26012 22 1.73012 21.65C1.26012 21.35 0.800103 21.01 0.340103 20.69C0.280103 20.65 0.250107 20.6 0.250107 20.52C0.250107 20.38 0.230108 20.25 0.220108 20.11C0.200108 19.81 0.18011 19.51 0.16011 19.21C0.15011 18.96 0.140112 18.7 0.130112 18.45C0.130112 18.43 0.120107 18.41 0.110107 18.4V17.09C0.110107 17.09 0.130112 17.06 0.130112 17.05C0.130112 16.91 0.150116 16.77 0.150116 16.63C0.150116 16.46 0.160105 16.29 0.170105 16.12C0.190105 15.8 0.210112 15.47 0.240112 15.15C0.280112 14.76 0.320117 14.37 0.370117 13.98C0.460117 13.3 0.580118 12.63 0.730118 11.96C0.990118 10.78 1.33011 9.62 1.74011 8.49C2.07011 7.6 2.44011 6.72 2.86011 5.87C3.23011 5.1 3.63011 4.35 4.07011 3.62C4.37011 3.12 4.69011 2.63 5.00011 2.14C5.03011 2.1 5.0701 2.05 5.1201 2.03C5.4101 1.9 5.71011 1.77 6.00011 1.64C7.00011 1.22 8.03012 0.87 9.08012 0.58C9.78012 0.39 10.4801 0.22 11.1901 0.0900002C11.3301 0.0600002 11.4601 0.03 11.6001 0L11.6601 0.03ZM24.6801 13.63C24.6801 13.23 24.6501 12.97 24.5301 12.58C24.2601 11.7 23.7401 11.03 22.9001 10.63C22.3801 10.38 21.8401 10.31 21.2801 10.42C20.4101 10.59 19.7801 11.1 19.3401 11.84C18.9501 12.5 18.8101 13.22 18.8801 13.98C18.9201 14.43 19.0401 14.86 19.2501 15.26C19.5701 15.88 20.0201 16.36 20.6501 16.66C21.3101 16.97 21.9801 17 22.6701 16.76C23.2801 16.55 23.7501 16.15 24.1101 15.62C24.5101 15.02 24.6901 14.35 24.6901 13.62L24.6801 13.63ZM10.9901 16.92C11.0501 16.92 11.1201 16.92 11.1801 16.92C11.2001 16.92 11.2101 16.92 11.2301 16.92C11.9801 16.85 12.5901 16.51 13.0801 15.94C13.5901 15.35 13.8501 14.65 13.9001 13.88C13.9201 13.56 13.9001 13.23 13.8401 12.91C13.6401 11.98 13.1701 11.24 12.3401 10.75C11.7701 10.42 11.1601 10.31 10.5101 10.43C9.79012 10.56 9.22012 10.95 8.79012 11.52C8.20012 12.29 8.0001 13.18 8.1201 14.13C8.2201 14.91 8.5401 15.59 9.1201 16.15C9.6401 16.65 10.2701 16.93 11.0001 16.93L10.9901 16.92Z" fill="white"/>
</svg>
