<svg width="39" height="39" viewBox="0 0 39 39" fill="none" xmlns="http://www.w3.org/2000/svg">
<g clip-path="url(#clip0_11_819)">
<path d="M29.8594 39H9.14062C4.10048 39 0 34.8995 0 29.8594V9.14062C0 4.10048 4.10048 0 9.14062 0H29.8594C34.8995 0 39 4.10048 39 9.14062V29.8594C39 34.8995 34.8995 39 29.8594 39ZM9.14062 3.04688C5.78053 3.04688 3.04688 5.78053 3.04688 9.14062V29.8594C3.04688 33.2195 5.78053 35.9531 9.14062 35.9531H29.8594C33.2195 35.9531 35.9531 33.2195 35.9531 29.8594V9.14062C35.9531 5.78053 33.2195 3.04688 29.8594 3.04688H9.14062ZM25.2891 14.4727C26.3408 14.4727 27.1934 13.6201 27.1934 12.5684C27.093 10.0423 23.4847 10.043 23.3848 12.5684C23.3848 13.6201 24.2374 14.4727 25.2891 14.4727ZM32.6131 21.323C31.9794 20.7699 31.017 20.835 30.4636 21.469L27.8857 24.4223C26.9799 25.4074 26.129 25.4752 25.0516 24.6453C25.0516 24.6453 17.9668 17.9358 17.9312 17.9076C15.8869 16.2908 12.9963 16.3823 11.0582 18.1253C11.0266 18.1537 6.58369 22.8742 6.58369 22.8742C6.00722 23.487 6.03662 24.4512 6.64942 25.0276C7.26238 25.6042 8.22649 25.5746 8.80288 24.9618L13.1374 20.354C13.9523 19.6555 15.1357 19.6173 15.994 20.2611C15.994 20.2611 23.076 26.9679 23.1115 26.996C24.1669 27.8305 25.3829 28.2598 26.5078 28.2598C27.4114 28.2301 28.836 27.9003 30.1465 26.465C30.1542 26.4566 30.1618 26.4482 30.1692 26.4396L32.7591 23.4726C33.3123 22.8387 33.247 21.8763 32.6131 21.323Z" fill="#25D862"/>
</g>
<defs>
<clipPath id="clip0_11_819">
<rect width="39" height="39" fill="white"/>
</clipPath>
</defs>
</svg>
