<svg width="32" height="26" viewBox="0 0 32 26" fill="none" xmlns="http://www.w3.org/2000/svg">
<path d="M9.79001 25.3C21.53 25.3 27.95 15.57 27.95 7.14C27.95 6.86 27.95 6.59 27.93 6.31C29.18 5.41 30.26 4.28 31.11 3C29.97 3.51 28.74 3.85 27.44 4C28.76 3.21 29.77 1.96 30.25 0.47C29.02 1.2 27.65 1.73 26.2 2.02C25.04 0.78 23.38 0 21.54 0C18.01 0 15.16 2.86 15.16 6.38C15.16 6.88 15.22 7.37 15.33 7.84C10.02 7.57 5.32001 5.03 2.17001 1.17C1.62001 2.11 1.31001 3.21 1.31001 4.38C1.31001 6.59 2.44001 8.55 4.15001 9.69C3.10001 9.66 2.12001 9.37 1.26001 8.89C1.26001 8.92 1.26001 8.94 1.26001 8.97C1.26001 12.06 3.46 14.64 6.38 15.23C5.84 15.38 5.28001 15.45 4.70001 15.45C4.29001 15.45 3.89002 15.41 3.50002 15.33C4.31002 17.87 6.67001 19.71 9.46001 19.76C7.27001 21.47 4.52001 22.49 1.53001 22.49C1.01001 22.49 0.51001 22.46 0.0100098 22.4C2.84001 24.21 6.19002 25.27 9.80002 25.27" fill="white"/>
</svg>
