<svg width="39" height="39" viewBox="0 0 39 39" fill="none" xmlns="http://www.w3.org/2000/svg">
<path d="M29.5152 28.8752L21.7898 36.3842C21.1864 36.9706 21.1727 37.9351 21.7591 38.5384C22.3425 39.1386 23.307 39.1584 23.9134 38.569L31.6389 31.0601C32.2421 30.4736 32.2559 29.5091 31.6695 28.9058C31.083 28.3025 30.1186 28.2888 29.5152 28.8752Z" fill="#25D862"/>
<path d="M7.93997 7.36127L0.431021 15.0868C-0.155426 15.6901 -0.141715 16.6546 0.461642 17.241C1.06439 17.8268 2.02888 17.8143 2.61586 17.2104L10.1248 9.48494C10.7113 8.88159 10.6975 7.9171 10.0942 7.33065C9.49083 6.7442 8.52634 6.75799 7.93997 7.36127Z" fill="#25D862"/>
<path d="M26.5306 8.15937C25.9356 7.56439 24.971 7.56439 24.3761 8.15937C23.7812 8.75435 23.7812 9.71891 24.3761 10.3138L28.685 14.6227C29.2799 15.2176 30.2445 15.2177 30.8395 14.6227C31.4345 14.0277 31.4345 13.0632 30.8395 12.4683L26.5306 8.15937Z" fill="#25D862"/>
<path d="M21.1443 13.2841C18.6184 13.2841 16.574 15.3281 16.574 17.8544C16.574 20.3802 18.6181 22.4247 21.1443 22.4247C23.6285 22.4247 25.7146 20.4181 25.7146 17.8544C25.7146 15.3284 23.6705 13.2841 21.1443 13.2841ZM21.1443 19.3778C20.3024 19.3778 19.6208 18.6964 19.6208 17.8544C19.6208 17.0124 20.3022 16.3309 21.1443 16.3309C21.9862 16.3309 22.6677 17.0123 22.6677 17.8544C22.6677 18.6951 21.9868 19.3778 21.1443 19.3778Z" fill="#25D862"/>
<path d="M38.7813 1.52592C38.6902 0.844642 38.1543 0.30862 37.473 0.217595C29.9674 -0.785284 22.2195 1.69807 16.6557 7.26197L9.29497 14.6227C7.513 16.4046 7.513 19.3041 9.29497 21.0861L17.9128 29.704C19.6988 31.4901 22.5899 31.4903 24.3762 29.704L31.7369 22.3433C37.0916 16.9886 39.8232 9.32508 38.7813 1.52592ZM29.5824 20.1888L22.2217 27.5495C21.6264 28.1449 20.6628 28.1449 20.0673 27.5495L11.4494 18.9317C10.8554 18.3377 10.8554 17.3712 11.4494 16.7772L18.8101 9.41649C22.8968 5.32979 28.5046 3.04944 34.2321 3.04944C34.7827 3.04944 35.3344 3.07054 35.8859 3.11312C36.3712 9.40156 34.0616 15.7096 29.5824 20.1888Z" fill="#25D862"/>
<path d="M3.61303 26.7693C3.00846 27.3738 2.07604 28.672 0.963241 32.9471C0.385858 35.1652 0.0376766 37.1298 0.0231278 37.2123C-0.0630988 37.7017 0.0948055 38.2025 0.446263 38.5539C0.79094 38.8986 1.2891 39.0648 1.7878 38.977C1.8703 38.9625 3.83492 38.6143 6.05305 38.0369C10.3282 36.9242 11.6263 35.9917 12.2309 35.3871C14.6123 33.0057 14.6126 29.151 12.2309 26.7693C9.84945 24.3877 5.99477 24.3875 3.61303 26.7693ZM10.0764 33.2326C9.93941 33.3695 9.06557 34.1026 5.30412 35.0833C4.66161 35.2508 4.03579 35.3991 3.47592 35.5242C3.60107 34.9643 3.7493 34.3385 3.91681 33.696C4.89752 29.9346 5.6306 29.0607 5.76755 28.9237C6.95827 27.733 8.88557 27.7328 10.0764 28.9237C11.2672 30.1144 11.2673 32.0417 10.0764 33.2326Z" fill="#25D862"/>
</svg>
