<svg width="31" height="30" viewBox="0 0 31 30" fill="none" xmlns="http://www.w3.org/2000/svg">
<path d="M15.01 0C6.73001 0 0.0100098 6.72 0.0100098 15C0.0100098 23.28 6.73001 30 15.01 30C23.29 30 30.01 23.28 30.01 15C30.01 6.72 23.29 0 15.01 0ZM22.32 9.54C22.23 10.92 19.68 21.2 19.68 21.2C19.68 21.2 19.53 21.8 18.98 21.82C18.78 21.82 18.54 21.79 18.25 21.54C17.67 21.04 16.34 20.09 15.09 19.24C14.71 19.56 13.97 20.2 13.19 20.98C12.09 22.08 12.23 20.98 12.23 20.98L12.57 17.4L12.61 17.34C12.61 17.34 19.08 11.59 19.25 10.99C19.26 10.94 19.21 10.92 19.15 10.94C18.72 11.1 11.27 15.8 10.45 16.32C10.4 16.35 10.27 16.33 10.27 16.33L6.66001 15.15C6.66001 15.15 6.23001 14.97 6.37001 14.58C6.40001 14.5 6.46001 14.43 6.63001 14.31C7.43001 13.75 21.45 8.71 21.45 8.71C21.45 8.71 21.85 8.58 22.08 8.67C22.19 8.71 22.26 8.76 22.31 8.92C22.33 8.98 22.34 9.11 22.34 9.24C22.34 9.33 22.33 9.42 22.32 9.55V9.54Z" fill="white"/>
</svg>
