<svg width="31" height="30" viewBox="0 0 31 30" fill="none" xmlns="http://www.w3.org/2000/svg">
<path d="M15.01 30C6.72002 30 2.09121e-05 23.28 0.0100209 14.99C0.0200209 6.7 6.73002 0 15.02 0C23.29 0 29.99 6.71 30.01 14.99C30.02 23.27 23.3 30 15.01 30ZM10.58 20.66C13.71 20.67 16.24 18.17 16.26 15.03C16.28 11.9 13.78 9.37 10.64 9.34C7.50003 9.32 4.96001 11.83 4.94001 14.98C4.93001 18.1 7.44002 20.64 10.57 20.65L10.58 20.66ZM16.8 14.87C16.8 15.94 16.92 16.88 17.25 17.8C17.51 18.53 17.85 19.21 18.44 19.72C19.22 20.4 20.15 20.41 20.9 19.69C21.24 19.37 21.55 18.97 21.75 18.55C22.71 16.55 22.75 14.48 22.13 12.38C21.9 11.61 21.55 10.91 20.95 10.35C20.17 9.62 19.22 9.6 18.42 10.31C18.18 10.53 17.96 10.79 17.79 11.07C17.05 12.26 16.82 13.59 16.8 14.87V14.87ZM23.08 15.41C23.11 15.85 23.15 16.71 23.25 17.56C23.31 18.1 23.46 18.63 23.61 19.16C23.68 19.41 23.76 19.75 24.09 19.75C24.41 19.75 24.47 19.4 24.57 19.15C24.65 18.94 24.71 18.72 24.76 18.5C25.19 16.33 25.18 14.15 24.85 11.96C24.79 11.59 24.69 11.21 24.57 10.85C24.49 10.6 24.41 10.26 24.09 10.25C23.76 10.25 23.71 10.6 23.6 10.83C23.54 10.96 23.5 11.11 23.47 11.25C23.16 12.47 23.1 13.72 23.08 15.4V15.41Z" fill="white"/>
</svg>
