<svg width="409" height="654" viewBox="0 0 409 654" fill="none" xmlns="http://www.w3.org/2000/svg">
<g filter="url(#filter0_d_9_737)">
<path d="M375.282 119.246L223.019 29.7194C221.419 28.7602 219.82 28.7602 218.22 29.7194L64.997 118.606C60.1988 121.484 57 126.919 57 132.675V308.21C57 311.407 58.9193 314.605 61.4783 316.203L219.82 408.287L63.7175 498.133C60.5187 500.052 60.5187 504.208 63.7175 506.127L218.22 598.211C219.82 599.17 221.419 599.17 223.019 598.211L374.003 507.086C378.801 504.208 382 498.773 382 493.017V316.843C382 313.645 380.081 310.448 377.202 308.849L217.581 218.364L375.282 127.239C378.161 125.64 378.161 121.164 375.282 119.246Z" fill="#25D862"/>
<path d="M220.46 407.968L64.3574 498.134C61.1585 500.052 61.1585 504.209 64.3574 506.127L218.86 597.892C220.46 598.851 222.379 598.851 223.659 597.892L365.046 504.529C369.525 501.331 369.525 494.617 364.726 491.739L220.46 407.968Z" fill="white"/>
<path d="M375.282 119.246L223.338 29.7202C221.739 28.761 219.82 28.761 218.54 29.7202L75.5529 121.804C70.7547 124.682 71.0745 131.716 75.8728 134.594L217.58 218.365L375.282 127.24C378.161 125.641 378.161 121.165 375.282 119.246Z" fill="white"/>
</g>
<defs>
<filter id="filter0_d_9_737" x="0" y="0" width="409" height="653.93" filterUnits="userSpaceOnUse" color-interpolation-filters="sRGB">
<feFlood flood-opacity="0" result="BackgroundImageFix"/>
<feColorMatrix in="SourceAlpha" type="matrix" values="0 0 0 0 0 0 0 0 0 0 0 0 0 0 0 0 0 0 127 0" result="hardAlpha"/>
<feOffset dx="-15" dy="13"/>
<feGaussianBlur stdDeviation="21"/>
<feComposite in2="hardAlpha" operator="out"/>
<feColorMatrix type="matrix" values="0 0 0 0 0.145098 0 0 0 0 0.847059 0 0 0 0 0.384314 0 0 0 0.48 0"/>
<feBlend mode="normal" in2="BackgroundImageFix" result="effect1_dropShadow_9_737"/>
<feBlend mode="normal" in="SourceGraphic" in2="effect1_dropShadow_9_737" result="shape"/>
</filter>
</defs>
</svg>
