<svg width="16" height="16" viewBox="0 0 16 16" fill="none" xmlns="http://www.w3.org/2000/svg">
<g clip-path="url(#clip0_207_311)">
<path d="M8.50206 0H7.49791C6.68575 0 6.02497 0.660749 6.02497 1.47291V1.81262C5.67969 1.92294 5.34422 2.06219 5.02194 2.22897L4.78119 1.98822C4.19809 1.40441 3.26406 1.42153 2.69791 1.98844L1.98819 2.69812C1.42103 3.26466 1.40472 4.19837 1.98837 4.78141L2.22894 5.02197C2.06216 5.34425 1.92294 5.67966 1.81259 6.025H1.47291C0.660781 6.025 0 6.68575 0 7.49791V8.50209C0 9.31425 0.660781 9.975 1.47294 9.975H1.81263C1.92297 10.3203 2.06219 10.6557 2.22897 10.978L1.98822 11.2188C1.40491 11.8014 1.421 12.7352 1.98841 13.302L2.69819 14.0118C3.26566 14.58 4.19947 14.5942 4.78144 14.0116L5.02197 13.7711C5.34425 13.9378 5.67972 14.0771 6.025 14.1874V14.5271C6.025 15.3393 6.68575 16 7.49794 16H8.50209C9.31425 16 9.975 15.3393 9.975 14.5271V14.1874C10.3203 14.0771 10.6558 13.9378 10.978 13.771L11.2188 14.0118C11.8019 14.5956 12.7359 14.5785 13.3021 14.0116L14.0118 13.3019C14.5789 12.7353 14.5953 11.8016 14.0116 11.2186L13.771 10.978C13.9378 10.6557 14.077 10.3203 14.1874 9.975H14.5271C15.3392 9.975 16 9.31425 16 8.50209V7.49791C16 6.68575 15.3392 6.025 14.5271 6.025H14.1874C14.077 5.67969 13.9378 5.34425 13.771 5.02197L14.0118 4.78122C14.5951 4.19853 14.579 3.26472 14.0116 2.69794L13.3018 1.98819C12.7343 1.41994 11.8005 1.40575 11.2186 1.98837L10.978 2.22891C10.6558 2.06216 10.3203 1.92291 9.975 1.81256V1.47284C9.975 0.66075 9.31425 0 8.50206 0ZM5.17866 3.21344C5.62637 2.94866 6.10825 2.74862 6.61088 2.61891C6.81787 2.5655 6.9625 2.37881 6.9625 2.16503V1.47291C6.9625 1.17769 7.20272 0.9375 7.49794 0.9375H8.50209C8.79731 0.9375 9.03753 1.17769 9.03753 1.47291V2.16503C9.03753 2.37881 9.18216 2.5655 9.38916 2.61891C9.89178 2.74862 10.3737 2.94866 10.8214 3.21344C11.0056 3.32237 11.2401 3.29275 11.3915 3.14141L11.8817 2.65112C12.0931 2.4395 12.4325 2.44441 12.6387 2.65091L13.3489 3.36109C13.5546 3.56653 13.5615 3.90603 13.3491 4.11812L12.8587 4.60859C12.7073 4.75991 12.6777 4.99447 12.7866 5.17866C13.0514 5.62634 13.2514 6.10822 13.3811 6.61088C13.4346 6.81787 13.6213 6.96247 13.835 6.96247H14.5271C14.8223 6.96247 15.0625 7.20266 15.0625 7.49788V8.50206C15.0625 8.79728 14.8223 9.03747 14.5271 9.03747H13.835C13.6212 9.03747 13.4346 9.18209 13.3811 9.38906C13.2514 9.89172 13.0514 10.3736 12.7866 10.8213C12.6777 11.0055 12.7073 11.24 12.8587 11.3913L13.3489 11.8816C13.5609 12.0933 13.5553 12.4327 13.3491 12.6387L12.639 13.3488C12.4331 13.5549 12.0936 13.561 11.8819 13.349L11.3915 12.8585C11.2402 12.7072 11.0056 12.6776 10.8214 12.7865C10.3737 13.0513 9.89181 13.2513 9.38919 13.381C9.18219 13.4344 9.03756 13.6211 9.03756 13.8349V14.5271C9.03756 14.8223 8.79734 15.0625 8.50212 15.0625H7.49797C7.20275 15.0625 6.96253 14.8223 6.96253 14.5271V13.835C6.96253 13.6212 6.81791 13.4345 6.61091 13.3811C6.10828 13.2514 5.62641 13.0513 5.17869 12.7866C4.99444 12.6777 4.75991 12.7073 4.60859 12.8586L4.11834 13.3489C3.90697 13.5605 3.5675 13.5556 3.36134 13.3491L2.65112 12.6389C2.44544 12.4335 2.43856 12.094 2.65094 11.8819L3.14141 11.3914C3.29272 11.2401 3.32234 11.0055 3.21344 10.8213C2.94866 10.3737 2.74866 9.89178 2.61894 9.38912C2.5655 9.18213 2.37881 9.03753 2.16506 9.03753H1.47294C1.17772 9.0375 0.9375 8.79731 0.9375 8.50209V7.49791C0.9375 7.20269 1.17772 6.9625 1.47294 6.9625H2.16503C2.37881 6.9625 2.56547 6.81787 2.61891 6.61091C2.74863 6.10825 2.94866 5.62637 3.21341 5.17869C3.32231 4.9945 3.29269 4.75994 3.14138 4.60863L2.65109 4.11834C2.43916 3.90666 2.44469 3.56728 2.65091 3.36131L3.36106 2.65116C3.56691 2.44503 3.90641 2.439 4.11809 2.65097L4.60853 3.14144C4.72003 3.25291 4.952 3.3475 5.17866 3.21344Z" fill="#25D862"/>
<path d="M8.00005 4.51876C6.08046 4.51876 4.5188 6.08045 4.5188 8.00001C4.5188 9.91957 6.08046 11.4813 8.00005 11.4813C9.91964 11.4813 11.4813 9.91957 11.4813 8.00001C11.4813 6.08045 9.91964 4.51876 8.00005 4.51876ZM8.00005 10.5438C6.59739 10.5438 5.4563 9.40264 5.4563 8.00001C5.4563 6.59739 6.59742 5.45626 8.00005 5.45626C9.40267 5.45626 10.5438 6.59739 10.5438 8.00001C10.5438 9.40264 9.40271 10.5438 8.00005 10.5438Z" fill="#25D862"/>
</g>
<defs>
<clipPath id="clip0_207_311">
<rect width="16" height="16" fill="white" transform="matrix(1 0 0 -1 0 16)"/>
</clipPath>
</defs>
</svg>
