<svg width="20" height="19" viewBox="0 0 20 19" fill="none" xmlns="http://www.w3.org/2000/svg">
<path d="M19.1734 9.19765C19.1734 8.28098 18.3118 7.73098 17.6243 7.31848C17.4108 7.19788 17.2056 7.06313 17.0101 6.91515C17.0787 6.66689 17.1676 6.42468 17.2759 6.19098C17.5784 5.45765 17.9634 4.55015 17.4226 3.80765C16.8818 3.06515 15.8918 3.13848 15.0943 3.21181C14.841 3.22964 14.5867 3.22964 14.3334 3.21181C14.2693 3.04681 14.1868 2.70765 14.1318 2.48765C13.9576 1.70848 13.7284 0.736814 12.8393 0.452647C11.9501 0.16848 11.2351 0.810147 10.6393 1.32348C10.4424 1.51947 10.2309 1.70027 10.0068 1.86431C9.78414 1.71495 9.57274 1.54951 9.37426 1.36931C8.77842 0.85598 8.03592 0.214314 7.17425 0.49848C6.31259 0.782647 6.05592 1.73598 5.88175 2.51515C5.82675 2.73515 5.74425 3.07431 5.68009 3.23931C5.42679 3.25714 5.17255 3.25714 4.91925 3.23931C4.12175 3.16598 3.14092 3.08348 2.59092 3.83515C2.04092 4.58681 2.43509 5.48515 2.73759 6.21848C2.84588 6.45218 2.93479 6.69439 3.00342 6.94265C2.80792 7.09063 2.60274 7.22538 2.38925 7.34598C1.70175 7.73098 0.840088 8.28098 0.840088 9.19765C0.840088 10.1143 1.70175 10.6643 2.38925 11.0768C2.60274 11.1974 2.80792 11.3322 3.00342 11.4801C2.93479 11.7284 2.84588 11.9706 2.73759 12.2043C2.43509 12.9376 2.05009 13.8451 2.59092 14.5876C3.13175 15.3301 4.12175 15.2568 4.91925 15.1835C5.17255 15.1656 5.42679 15.1656 5.68009 15.1835C5.74425 15.3485 5.82675 15.6876 5.88175 15.9076C6.05592 16.6868 6.28509 17.6585 7.17425 17.9426C8.06342 18.2268 8.77842 17.5851 9.37426 17.026C9.57274 16.8458 9.78414 16.6803 10.0068 16.531C10.2294 16.6803 10.4408 16.8458 10.6393 17.026C11.1054 17.5268 11.7305 17.8507 12.4084 17.9426C12.5549 17.9399 12.7001 17.9151 12.8393 17.8693C13.7559 17.5851 13.9576 16.6135 14.1318 15.8343C14.1868 15.6143 14.2693 15.2751 14.3334 15.1101C14.5867 15.0923 14.841 15.0923 15.0943 15.1101C15.8918 15.1835 16.8726 15.266 17.4226 14.5143C17.9726 13.7626 17.5784 12.8643 17.2759 12.131C17.1676 11.8973 17.0787 11.6551 17.0101 11.4068C17.2056 11.2588 17.4108 11.1241 17.6243 11.0035C18.3118 10.6643 19.1734 10.1143 19.1734 9.19765ZM13.4718 7.47431L9.80509 12.0576C9.72566 12.1587 9.62585 12.242 9.51214 12.302C9.39844 12.362 9.27338 12.3975 9.14509 12.406H9.09009C8.96945 12.4067 8.84986 12.3836 8.73817 12.3379C8.62649 12.2923 8.52491 12.2251 8.43925 12.1401L6.60592 10.3068C6.43331 10.1342 6.33634 9.90009 6.33634 9.65598C6.33634 9.41187 6.43331 9.17776 6.60592 9.00515C6.77853 8.83254 7.01265 8.73556 7.25675 8.73556C7.50086 8.73556 7.73498 8.83254 7.90759 9.00515L9.01676 10.1143L12.0418 6.33765C12.1994 6.17065 12.414 6.0689 12.643 6.05253C12.8721 6.03617 13.099 6.10638 13.2787 6.24928C13.4585 6.39218 13.5781 6.59735 13.6139 6.8242C13.6496 7.05106 13.5989 7.28306 13.4718 7.47431Z" fill="#25D862"/>
</svg>
