<svg width="37" height="13" viewBox="0 0 37 13" fill="none" xmlns="http://www.w3.org/2000/svg">
<path d="M0 0H27.5C32.7467 0 37 4.25329 37 9.5V12.7818H9.5C4.2533 12.7818 0 8.52852 0 3.28182V0Z" fill="#25D862"/>
<path d="M5.264 9L3.296 3.848H4.424L5.848 7.792L7.28 3.848H8.408L6.448 9H5.264ZM10.4164 9.08C9.76038 9.08 9.24038 8.91733 8.85638 8.592C8.47238 8.26133 8.28038 7.76267 8.28038 7.096C8.28038 6.49333 8.44038 6.016 8.76038 5.664C9.08571 5.30667 9.56838 5.128 10.2084 5.128C10.795 5.128 11.243 5.28267 11.5524 5.592C11.867 5.896 12.0244 6.296 12.0244 6.792V7.48H9.28038C9.33904 7.784 9.47771 7.992 9.69638 8.104C9.92038 8.216 10.235 8.272 10.6404 8.272C10.843 8.272 11.0484 8.25333 11.2564 8.216C11.4697 8.17867 11.651 8.13067 11.8004 8.072V8.84C11.6244 8.92 11.419 8.97867 11.1844 9.016C10.9497 9.05867 10.6937 9.08 10.4164 9.08ZM9.28038 6.816H11.0804V6.608C11.0804 6.38933 11.0164 6.21867 10.8884 6.096C10.7604 5.968 10.5444 5.904 10.2404 5.904C9.88304 5.904 9.63238 5.976 9.48838 6.12C9.34971 6.264 9.28038 6.496 9.28038 6.816ZM12.7763 9V5.208H13.7763L13.8243 5.6C13.995 5.49333 14.2056 5.39733 14.4563 5.312C14.7123 5.22133 14.963 5.16 15.2083 5.128V5.944C15.0643 5.96533 14.907 5.99733 14.7363 6.04C14.5656 6.08267 14.403 6.13067 14.2483 6.184C14.0936 6.23733 13.963 6.29333 13.8563 6.352V9H12.7763ZM16.0247 4.512V3.664H17.2007V4.512H16.0247ZM16.1127 9V6.008H15.5447L15.6407 5.208H17.1927V9H16.1127ZM18.3203 9V6.04H17.7923V5.208H18.3203V4.832C18.3203 4.56533 18.3843 4.328 18.5123 4.12C18.6403 3.912 18.8243 3.74667 19.0643 3.624C19.3096 3.50133 19.5976 3.44 19.9283 3.44C20.3496 3.44 20.6883 3.49333 20.9443 3.6V4.4C20.8749 4.36267 20.7709 4.336 20.6323 4.32C20.4936 4.29867 20.3709 4.288 20.2643 4.288C19.9549 4.288 19.7336 4.33333 19.6003 4.424C19.4669 4.51467 19.4003 4.66133 19.4003 4.864V5.208H21.5763V9H20.4963V6.04H19.4003V9H18.3203ZM24.4633 9.08C23.8073 9.08 23.2873 8.91733 22.9033 8.592C22.5193 8.26133 22.3273 7.76267 22.3273 7.096C22.3273 6.49333 22.4873 6.016 22.8073 5.664C23.1326 5.30667 23.6153 5.128 24.2553 5.128C24.8419 5.128 25.2899 5.28267 25.5993 5.592C25.9139 5.896 26.0712 6.296 26.0712 6.792V7.48H23.3273C23.3859 7.784 23.5246 7.992 23.7433 8.104C23.9673 8.216 24.2819 8.272 24.6873 8.272C24.8899 8.272 25.0953 8.25333 25.3033 8.216C25.5166 8.17867 25.6979 8.13067 25.8473 8.072V8.84C25.6713 8.92 25.4659 8.97867 25.2313 9.016C24.9966 9.05867 24.7406 9.08 24.4633 9.08ZM23.3273 6.816H25.1273V6.608C25.1273 6.38933 25.0633 6.21867 24.9353 6.096C24.8073 5.968 24.5913 5.904 24.2873 5.904C23.9299 5.904 23.6793 5.976 23.5353 6.12C23.3966 6.264 23.3273 6.496 23.3273 6.816ZM28.4072 9.08C28.0712 9.08 27.7699 9.02133 27.5032 8.904C27.2419 8.78133 27.0365 8.584 26.8872 8.312C26.7379 8.03467 26.6632 7.66933 26.6632 7.216C26.6632 6.76267 26.7459 6.38133 26.9112 6.072C27.0765 5.76267 27.2979 5.528 27.5752 5.368C27.8525 5.208 28.1565 5.128 28.4872 5.128C28.9032 5.128 29.2579 5.224 29.5512 5.416V3.608H30.6312V9H29.7032L29.6392 8.648C29.4739 8.792 29.2925 8.90133 29.0952 8.976C28.9032 9.04533 28.6739 9.08 28.4072 9.08ZM28.7032 8.288C29.0392 8.288 29.3219 8.17333 29.5512 7.944V6.216C29.3272 6.01867 29.0659 5.92 28.7672 5.92C28.0952 5.92 27.7592 6.352 27.7592 7.216C27.7592 7.62133 27.8419 7.90133 28.0072 8.056C28.1725 8.21067 28.4045 8.288 28.7032 8.288Z" fill="black"/>
</svg>
