<svg width="786" height="197" viewBox="0 0 786 197" fill="none" xmlns="http://www.w3.org/2000/svg">
<rect x="23" y="7" width="762" height="189" rx="18" fill="#0ACFFB"/>
<rect x="23" y="1" width="762" height="189" rx="18" fill="white"/>
<path d="M41 0.5C30.7828 0.5 22.5 8.78179 22.5 18.9991V19.1175V19.236V19.3544V19.4729V19.5914V19.7099V19.8284V19.9469V20.0654V20.184V20.3025V20.421V20.5396V20.6581V20.7767V20.8952V21.0138V21.1324V21.2509V21.3695V21.488V21.6066V21.7251V21.8436V21.9622V22.0807V22.1992V22.3177V22.4362V22.5547V22.6731V22.7916V22.91V23.0285V23.1469V23.2653V23.3836V23.502V23.6203V23.7386V23.8569V23.9752V24.0934V24.2117V24.3299V24.448V24.5662V24.6843V24.8024V24.9204V25.0384V25.1564V25.2744V25.3923V25.5102V25.628V25.7458V25.8636V25.9813V26.099V26.2167V26.3343V26.4519V26.5694V26.6869V26.8043V26.9217V27.039V27.1563V27.2735V27.3907V27.5079V27.625V27.742V27.859V27.9759V28.0928V28.2096V28.3263V28.443V28.5597V28.6762V28.7927V28.9092V29.0256V29.1419V29.2582V29.3743V29.4905V29.6065V29.7225V29.8384V29.9542V30.07V30.1857V30.3013V30.4169V30.5323V30.6477V30.7631V30.8783V30.9934V31.1085V31.2235V31.3384V31.4533V31.568V31.6827V31.7972V31.9117V32.0261V32.1404V32.2546V32.3687V32.4828V32.5967V32.7106V32.8243V32.938V33.0515V33.165V33.2783V33.3916V33.5048V33.6178V33.7308V33.8436V33.9564V34.069V34.1815V34.294V34.4063V34.5185V34.6306V34.7426V34.8545V34.9662V35.0779V35.1894V35.3008V35.4121V35.5233V35.6344V35.7453V35.8562V35.9669V36.0774V36.1879V36.2982V36.4084V36.5185V36.6285V36.7383V36.848V36.9576V37.067V37.1763V37.2855V37.3945V37.5034V37.6122V37.7208V37.8293V37.9376V38.0458V38.1539V38.2618V38.3696V38.4773V38.5848V38.6921V38.7993V38.9064V39.0133V39.1201V39.2267V39.3332V39.4395V39.5456V39.6516V39.7575V39.8632V39.9687V40.0741V40.1793V40.2844V40.3893V40.494V40.5986V40.703V40.8072V40.9113V41.0152V41.119V41.2226V41.326V41.4292V41.5323V41.6352V41.7379V41.8405V41.9429V42.0451V42.1471V42.2489V42.3506V42.4521V42.5534V42.6545V42.7555V42.8563V42.9568V43.0572V43.1574V43.2575V43.3573V43.4569V43.5564V43.6556V43.7547V43.8536V43.9523V44.0508V44.1491V44.2472V44.3451V44.4428V44.5403V44.6376V44.7347V44.8316V44.9283V45.0248V45.121V45.2171V45.313V45.4087V45.5041V45.5994V45.6944V45.7892V45.8838V45.9782V46.0724V46.1664V46.2601V46.3537V46.447V46.5401V46.6329V46.7256V46.818V46.9102V47.0022V47.094V47.1855V47.2768V47.3679V47.4588V47.5494V47.6398V47.7299V47.8198V47.9095V47.999V48.0882V48.1772V48.2659V48.3545V48.4427V48.5308V48.6185V48.7061V48.7934V48.8805V48.9673V49.0538V49.1402V49.2262V49.3121V49.3976V49.483V49.568V49.6529V49.7374V49.8217V49.9058V49.9896V50.0731V50.1564V50.2395V50.3222V50.4047V50.487V50.569V50.6507V50.7321V50.8133V50.8942V50.9749V51.0553V51.1354V51.2152V51.2948V51.3741V51.4531V51.5319V51.6103V51.6885V51.7665V51.8441V51.9215V51.9985V52.0753V52.1519V52.2281V52.3041V52.3797V52.4551V52.5302V52.605V52.6795V52.7538V52.8277V52.9014V52.9747V53.0478V53.1206V53.193V53.2652V53.3371V53.4087V53.48V53.5509V53.6216V53.692V53.7621V53.8319V53.9013V53.9705V54.0393V54.1079V54.1761V54.2441V54.3117V54.379V54.446V54.5127V54.5791V54.6451V54.7108V54.7763V54.8414V54.9062V54.9706V55.0348V55.0986V55.1621V55.2253V55.2881V55.3506V55.4128V55.4747V55.5363V55.5975V55.6584V55.7189V55.7791V55.839V55.8986V55.9578V56.0167V56.0752V56.1334V56.1913V56.2488V56.306V56.3628V56.4193V56.4755V56.5313V56.5868V56.6419V56.6967V56.7511V56.8052V56.8589V56.9123V56.9653V57.018V57.0703V57.1223V57.1739V57.2251V57.276V57.3265V57.3767V57.4265V57.476V57.5251V57.5738V57.6221V57.6701V57.7178V57.765V57.8119V57.8584V57.9046V57.9504V57.9958V58.0408V58.0855V58.1297V58.1737V58.2172V58.2603V58.3031V58.3455V58.3875V58.4292V58.4704V58.5113V58.5518V58.5919V58.6316V58.6709V58.7099V58.7484V58.7866V58.8243V58.8617V58.8987V58.9353V58.9715V59.0073V59.0427V59.0777V59.1123V59.1465V59.1803V59.2137V59.2467V59.2793V59.3115V59.3433V59.3746V59.4056V59.4362V59.4663V59.4961V59.5254V59.5543V59.5829V59.611V59.6386V59.6659V59.6928V59.7192V59.7452V59.7708V59.796V59.8207V59.845V59.869V59.8924V59.9155V59.9381V59.9603V59.9821V60.0034V60.0244V60.0448V60.0649V60.0845V60.1037V60.1225V60.1408V60.1587V60.1761V60.1931V60.2097V60.2258V60.2415V60.2567V60.2715V60.2859V60.2998V60.3132V60.3262V60.3388V60.3509V60.3626V60.3738V60.3846V60.3949V60.4007C22.4979 60.4048 22.4957 60.409 22.4934 60.4135C22.4566 60.4842 22.3989 60.5881 22.3195 60.7264C22.1613 61.0015 21.9274 61.394 21.6271 61.8892C21.0272 62.8787 20.1691 64.2673 19.1381 65.9232C17.0764 69.2344 14.3272 73.6081 11.5771 77.9832L11.5767 77.9839C8.82689 82.3586 6.07624 86.7346 4.01305 90.0482C2.9816 91.7048 2.12093 93.0975 1.51776 94.0923C1.21646 94.5893 0.977704 94.9898 0.813601 95.2752C0.731957 95.4172 0.666093 95.5354 0.619613 95.6247C0.596788 95.6685 0.575091 95.7122 0.557913 95.7514C0.549518 95.7706 0.538899 95.7962 0.529486 95.8245L0.528978 95.826C0.523428 95.8426 0.5 95.9126 0.5 96V96.003V96.0062V96.0095V96.013V96.0166V96.0204V96.0244V96.0285V96.0328V96.0372V96.0418V96.0465V96.0514V96.0564V96.0616V96.067V96.0724V96.0781V96.0839V96.0898V96.0959V96.1021V96.1085V96.115V96.1217V96.1285V96.1354V96.1425V96.1498V96.1572V96.1647V96.1724V96.1802V96.1881V96.1962V96.2044V96.2128V96.2213V96.2299V96.2387V96.2476V96.2566V96.2658V96.2751V96.2846V96.2941V96.3038V96.3137V96.3236V96.3337V96.3439V96.3543V96.3648V96.3754V96.3861V96.397V96.408V96.4191V96.4303V96.4416V96.4531V96.4647V96.4764V96.4883V96.5002V96.5123V96.5245V96.5368V96.5493V96.5618V96.5745V96.5873V96.6002V96.6132V96.6263V96.6396V96.6529V96.6664V96.68V96.6937V96.7075V96.7214V96.7354V96.7495V96.7637V96.7781V96.7925V96.8071V96.8217V96.8365V96.8514V96.8663V96.8814V96.8966V96.9119V96.9272V96.9427V96.9583V96.974V96.9897V97.0056V97.0216V97.0377V97.0538V97.0701V97.0864V97.1029V97.1194V97.136V97.1527V97.1696V97.1865V97.2035V97.2205V97.2377V97.255V97.2723V97.2898V97.3073V97.3249V97.3426V97.3604V97.3782V97.3962V97.4142V97.4323V97.4505V97.4688V97.4871V97.5055V97.524V97.5426V97.5613V97.58V97.5989V97.6177V97.6367V97.6558V97.6749V97.6941V97.7133V97.7327V97.7521V97.7715V97.7911V97.8107V97.8304V97.8502V97.87V97.8899V97.9098V97.9298V97.9499V97.9701V97.9903V98.0106V98.0309V98.0513V98.0718V98.0923V98.1129V98.1335V98.1542V98.175V98.1958V98.2167V98.2376V98.2586V98.2796V98.3007V98.3219V98.3431V98.3643V98.3856V98.407V98.4284V98.4499V98.4714V98.4929V98.5145V98.5362V98.5579V98.5796V98.6014V98.6233V98.6451V98.6671V98.689V98.7111V98.7331V98.7552V98.7773V98.7995V98.8217V98.844V98.8663V98.8886V98.911V98.9334V98.9558V98.9783V99.0008V99.0233V99.0459V99.0685V99.0912V99.1138V99.1365V99.1593V99.182V99.2048V99.2276V99.2505V99.2734V99.2962V99.3192V99.3421V99.3651V99.3881V99.4111V99.4342V99.4572V99.4803V99.5034V99.5265V99.5497V99.5729V99.596V99.6192V99.6425V99.6657V99.6889V99.7122V99.7355V99.7588V99.7821V99.8054V99.8287V99.8521V99.8754V99.8988V99.9222V99.9455V99.9689V99.9923V100.016V100.039V100.063V100.086V100.109V100.133V100.156V100.18V100.203V100.227V100.25V100.273V100.297V100.32V100.344V100.367V100.391V100.414V100.437V100.461V100.484V100.508V100.531V100.554V100.578V100.601V100.625V100.648V100.671V100.695V100.718V100.741V100.765V100.788V100.811V100.834V100.858V100.881V100.904V100.927V100.95V100.973V100.997V101.02V101.043V101.066V101.089V101.112V101.135V101.158V101.181V101.204V101.227V101.25V101.272V101.295V101.318V101.341V101.363V101.386V101.409V101.431V101.454V101.477V101.499V101.522V101.544V101.567V101.589V101.611V101.634V101.656V101.678V101.7V101.723V101.745V101.767V101.789V101.811V101.833V101.855V101.877V101.899V101.92V101.942V101.964V101.985V102.007V102.029V102.05V102.072V102.093V102.114V102.136V102.157V102.178V102.199V102.22V102.241V102.262V102.283V102.304V102.325V102.346V102.366V102.387V102.408V102.428V102.449V102.469V102.489V102.51V102.53V102.55V102.57V102.59V102.61V102.63V102.65V102.67V102.689V102.709V102.728V102.748V102.767V102.787V102.806V102.825V102.844V102.863V102.882V102.901V102.92V102.939V102.957V102.976V102.994V103.013V103.031V103.05V103.068V103.086V103.104V103.122V103.14V103.157V103.175V103.193V103.21V103.228V103.245V103.262V103.279V103.297V103.314V103.33V103.347V103.364V103.381V103.397V103.414V103.43V103.446V103.462V103.478V103.494V103.51V103.526V103.542V103.557V103.573V103.588V103.603V103.619V103.634V103.649V103.663V103.678V103.693V103.707V103.722V103.736V103.75V103.765V103.779V103.793V103.806V103.82V103.834V103.847V103.86V103.874V103.887V103.9V103.913V103.925V103.938V103.951V103.963V103.975V103.988V104V104.012V104.024V104.035V104.047V104.058V104.07V104.081V104.092V104.103V104.114V104.125V104.135V104.146V104.156V104.166V104.176V104.186V104.196V104.206V104.215V104.225V104.234V104.243V104.252V104.261V104.27V104.279V104.287V104.296V104.304V104.312V104.32V104.328V104.335V104.343V104.35V104.357V104.365V104.372V104.378V104.385V104.392V104.398V104.404V104.41V104.416V104.422V104.428V104.433V104.438V104.444V104.449V104.453V104.458V104.463V104.467V104.471V104.476V104.48V104.483V104.487V104.49V104.494V104.497V104.5C0.5 104.586 0.522728 104.655 0.527935 104.671L0.52845 104.673C0.537452 104.7 0.54764 104.726 0.555795 104.745C0.572489 104.784 0.593738 104.828 0.616392 104.873C0.662481 104.965 0.728011 105.087 0.80956 105.234C0.973413 105.531 1.21196 105.947 1.51322 106.464C2.11625 107.5 2.97681 108.951 4.00824 110.678C6.07137 114.132 8.82196 118.696 11.5718 123.258L11.5728 123.26C14.3227 127.822 17.0716 132.383 19.1332 135.835C20.1643 137.561 21.0225 139.008 21.6226 140.039C21.9229 140.554 22.157 140.963 22.3154 141.25C22.395 141.393 22.453 141.502 22.4902 141.576C22.4937 141.583 22.497 141.59 22.5 141.596V141.596V141.606V141.616V141.627V141.638V141.649V141.661V141.673V141.686V141.699V141.713V141.727V141.741V141.756V141.772V141.787V141.804V141.82V141.837V141.855V141.873V141.891V141.91V141.929V141.948V141.968V141.989V142.01V142.031V142.052V142.074V142.097V142.12V142.143V142.167V142.191V142.215V142.24V142.265V142.291V142.317V142.343V142.37V142.398V142.425V142.453V142.482V142.511V142.54V142.569V142.599V142.63V142.66V142.692V142.723V142.755V142.787V142.82V142.853V142.887V142.92V142.955V142.989V143.024V143.059V143.095V143.131V143.167V143.204V143.241V143.279V143.317V143.355V143.394V143.433V143.472V143.512V143.552V143.592V143.633V143.674V143.715V143.757V143.799V143.842V143.885V143.928V143.972V144.015V144.06V144.104V144.149V144.194V144.24V144.286V144.332V144.379V144.426V144.473V144.521V144.569V144.617V144.666V144.715V144.764V144.814V144.863V144.914V144.964V145.015V145.066V145.118V145.17V145.222V145.275V145.327V145.38V145.434V145.488V145.542V145.596V145.651V145.706V145.761V145.817V145.873V145.929V145.985V146.042V146.099V146.157V146.214V146.272V146.331V146.389V146.448V146.507V146.567V146.627V146.687V146.747V146.808V146.869V146.93V146.991V147.053V147.115V147.177V147.24V147.303V147.366V147.429V147.493V147.557V147.621V147.686V147.751V147.816V147.881V147.947V148.013V148.079V148.145V148.212V148.279V148.346V148.413V148.481V148.549V148.617V148.686V148.754V148.823V148.892V148.962V149.032V149.102V149.172V149.242V149.313V149.384V149.455V149.526V149.598V149.67V149.742V149.815V149.887V149.96V150.033V150.106V150.18V150.254V150.328V150.402V150.476V150.551V150.626V150.701V150.777V150.852V150.928V151.004V151.08V151.157V151.233V151.31V151.387V151.465V151.542V151.62V151.698V151.776V151.854V151.933V152.012V152.09V152.17V152.249V152.329V152.408V152.488V152.569V152.649V152.729V152.81V152.891V152.972V153.054V153.135V153.217V153.299V153.381V153.463V153.545V153.628V153.711V153.794V153.877V153.96V154.044V154.128V154.211V154.295V154.38V154.464V154.549V154.633V154.718V154.803V154.888V154.974V155.059V155.145V155.231V155.317V155.403V155.49V155.576V155.663V155.75V155.837V155.924V156.011V156.098V156.186V156.274V156.362V156.45V156.538V156.626V156.714V156.803V156.892V156.981V157.07V157.159V157.248V157.337V157.427V157.517V157.606V157.696V157.786V157.877V157.967V158.057V158.148V158.239V158.33V158.421V158.512V158.603V158.694V158.785V158.877V158.969V159.06V159.152V159.244V159.336V159.429V159.521V159.613V159.706V159.798V159.891V159.984V160.077V160.17V160.263V160.356V160.45V160.543V160.637V160.73V160.824V160.918V161.012V161.106V161.2V161.294V161.388V161.482V161.577V161.671V161.766V161.86V161.955V162.05V162.145V162.24V162.335V162.43V162.525V162.62V162.716V162.811V162.907V163.002V163.098V163.193V163.289V163.385V163.481V163.577V163.673V163.769V163.865V163.961V164.057V164.153V164.25V164.346V164.442V164.539V164.635V164.732V164.828V164.925V165.022V165.118V165.215V165.312V165.409V165.506V165.603V165.7V165.797V165.894V165.991V166.088V166.185V166.282V166.379V166.476V166.574V166.671V166.768V166.865V166.963V167.06V167.157V167.255V167.352V167.449V167.547V167.644V167.742V167.839V167.937V168.034V168.132V168.229V168.327V168.424V168.522V168.619V168.717V168.814V168.912V169.009V169.107V169.204V169.302V169.399V169.497V169.594V169.692V169.789V169.887V169.984V170.081V170.179V170.276V170.374V170.471V170.568V170.666V170.763V170.86V170.957V171.055V171.152V171.249V171.346V171.443V171.54V171.637V171.734V171.831V171.928V172.025V172.122V172.219V172.316V172.412V172.509V172.606V172.702V172.799V172.895V172.992V173.088V173.185V173.281V173.377V173.473V173.57V173.666V173.762V173.858V173.954V174.05V174.145V174.241V174.337V174.433V174.528V174.624V174.719V174.814V174.91V175.005V175.1V175.195V175.29V175.385V175.48V175.575V175.669V175.764V175.859V175.953V176.047V176.142V176.236V176.33V176.424V176.518V176.612V176.706V176.799V176.893V176.986V177.08V177.173V177.266V177.359V177.452V177.545V177.638V177.731V177.823V177.916V178.008C22.5 188.226 30.783 196.5 41 196.5H767C777.217 196.5 785.5 188.217 785.5 178V19C785.5 8.78273 777.217 0.5 767 0.5H41Z" stroke="black"/>
<path d="M0.999998 104.873L0.999998 95.9999L23 60.4999L23 141.246L0.999998 104.873Z" fill="#0ACFFB"/>
<path d="M0.999998 96L23.5 59.6269L23.5 132.373L0.999998 96Z" fill="white"/>
</svg>
