<svg width="53" height="52" viewBox="0 0 53 52" fill="none" xmlns="http://www.w3.org/2000/svg">
<g clip-path="url(#clip0_64_133)">
<path d="M26.5507 52C40.91 52 52.5506 40.3594 52.5506 26C52.5506 11.6406 40.91 0 26.5507 0C12.1913 0 0.550781 11.6406 0.550781 26C0.550781 40.3594 12.1913 52 26.5507 52Z" fill="#3B3B3B"/>
<path d="M14.7695 29.047C14.7695 28.5214 14.9722 27.9962 15.3766 27.5985C16.1765 26.8119 17.4626 26.8228 18.2491 27.6227L24.9631 34.4506C25.3434 34.83 25.8475 35.039 26.3833 35.039C26.9175 35.039 27.4202 34.8314 27.8002 34.4541L34.4385 27.6303C35.2207 26.8262 36.5067 26.8085 37.3109 27.5908C38.1149 28.373 38.1327 29.659 37.3504 30.4632L30.702 37.2972C30.6962 37.3031 30.6904 37.3091 30.6845 37.3149C29.536 38.4669 28.0084 39.1014 26.3833 39.1014C24.7582 39.1014 23.2306 38.4669 22.0821 37.3149C22.0788 37.3115 22.0755 37.3083 22.0723 37.3049L15.3523 30.4709C14.9635 30.0755 14.7695 29.5611 14.7695 29.047ZM24.5194 29.0469V14.4219C24.5194 13.3 25.4288 12.3906 26.5507 12.3906C27.6725 12.3906 28.5819 13.3 28.5819 14.4219V29.0469C28.5819 30.1687 27.6725 31.0781 26.5507 31.0781C25.4288 31.0781 24.5194 30.1687 24.5194 29.0469Z" fill="#C780B6"/>
</g>
<defs>
<clipPath id="clip0_64_133">
<rect width="53" height="52" fill="white"/>
</clipPath>
</defs>
</svg>
