<svg width="39" height="39" viewBox="0 0 39 39" fill="none" xmlns="http://www.w3.org/2000/svg">
<g clip-path="url(#clip0_47_93)">
<path d="M29.5152 28.8753L21.7898 36.3843C21.1864 36.9707 21.1727 37.9352 21.7591 38.5385C22.3425 39.1387 23.307 39.1585 23.9134 38.5691L31.6389 31.0602C32.2421 30.4737 32.2559 29.5092 31.6695 28.9059C31.083 28.3026 30.1186 28.2889 29.5152 28.8753Z" fill="#C780B6"/>
<path d="M7.93997 7.36103L0.431021 15.0866C-0.155426 15.6899 -0.141715 16.6544 0.461642 17.2408C1.06439 17.8266 2.02888 17.8141 2.61586 17.2102L10.1248 9.4847C10.7113 8.88135 10.6975 7.91686 10.0942 7.33041C9.49083 6.74396 8.52634 6.75775 7.93997 7.36103Z" fill="#C780B6"/>
<path d="M26.5304 8.15961C25.9354 7.56463 24.9708 7.56463 24.3759 8.15961C23.781 8.75459 23.781 9.71915 24.3759 10.314L28.6848 14.6229C29.2797 15.2178 30.2443 15.2179 30.8393 14.6229C31.4343 14.0279 31.4343 13.0634 30.8393 12.4685L26.5304 8.15961Z" fill="#C780B6"/>
<path d="M21.1445 13.2842C18.6186 13.2842 16.5742 15.3282 16.5742 17.8545C16.5742 20.3803 18.6183 22.4248 21.1445 22.4248C23.6287 22.4248 25.7148 20.4182 25.7148 17.8545C25.7148 15.3285 23.6707 13.2842 21.1445 13.2842ZM21.1445 19.3779C20.3026 19.3779 19.621 18.6965 19.621 17.8545C19.621 17.0125 20.3024 16.331 21.1445 16.331C21.9864 16.331 22.6679 17.0124 22.6679 17.8545C22.6679 18.6952 21.987 19.3779 21.1445 19.3779Z" fill="#C780B6"/>
<path d="M38.7813 1.52592C38.6902 0.844642 38.1543 0.30862 37.473 0.217595C29.9674 -0.785284 22.2195 1.69807 16.6557 7.26197L9.29497 14.6227C7.513 16.4046 7.513 19.3041 9.29497 21.0861L17.9128 29.704C19.6988 31.4901 22.5899 31.4903 24.3762 29.704L31.7369 22.3433C37.0916 16.9886 39.8232 9.32508 38.7813 1.52592ZM29.5824 20.1888L22.2217 27.5495C21.6264 28.1449 20.6628 28.1449 20.0673 27.5495L11.4494 18.9317C10.8554 18.3377 10.8554 17.3712 11.4494 16.7772L18.8101 9.41649C22.8968 5.32979 28.5046 3.04944 34.2321 3.04944C34.7827 3.04944 35.3344 3.07054 35.8859 3.11312C36.3712 9.40156 34.0616 15.7096 29.5824 20.1888Z" fill="#C780B6"/>
<path d="M3.61303 26.7692C3.00846 27.3737 2.07604 28.6719 0.963241 32.947C0.385858 35.1651 0.0376766 37.1297 0.0231278 37.2122C-0.0630988 37.7016 0.0948055 38.2024 0.446263 38.5538C0.79094 38.8985 1.2891 39.0647 1.7878 38.9769C1.8703 38.9624 3.83492 38.6142 6.05305 38.0368C10.3282 36.9241 11.6263 35.9916 12.2309 35.387C14.6123 33.0056 14.6126 29.1509 12.2309 26.7692C9.84945 24.3876 5.99477 24.3874 3.61303 26.7692ZM10.0764 33.2325C9.93941 33.3694 9.06557 34.1025 5.30412 35.0832C4.66161 35.2507 4.03579 35.399 3.47592 35.5241C3.60107 34.9642 3.7493 34.3384 3.91681 33.6959C4.89752 29.9345 5.6306 29.0606 5.76755 28.9236C6.95827 27.7329 8.88557 27.7327 10.0764 28.9236C11.2672 30.1143 11.2673 32.0416 10.0764 33.2325Z" fill="#C780B6"/>
</g>
<defs>
<clipPath id="clip0_47_93">
<rect width="39" height="39" fill="white"/>
</clipPath>
</defs>
</svg>
