<svg width="39" height="39" viewBox="0 0 39 39" fill="none" xmlns="http://www.w3.org/2000/svg">
<g clip-path="url(#clip0_42_65)">
<path d="M37.4741 10.7444C38.3153 10.7444 38.9973 10.0625 38.9973 9.22122V7.62185C38.9973 3.41915 35.578 0 31.3754 0C31.3754 0 7.49838 0.00357955 7.43951 0.0105102C5.42971 0.0807302 3.49912 0.943173 2.10751 2.40134C0.681096 3.89592 -0.0625357 5.83984 0.0074559 7.88513C0.0045618 7.9239 0.00303858 29.8549 0.00303858 29.8549C0.00303858 34.8975 4.10551 39 9.1481 39H31.3754C35.5781 39 38.9973 35.5808 38.9973 31.3782V19.8133C38.9973 15.6106 35.5781 12.1915 31.3754 12.1915H7.61902C5.17343 12.1915 3.16843 10.28 3.05441 7.83982C2.99646 6.59901 3.44283 5.41456 4.31122 4.50459C5.19216 3.58153 6.42939 3.05221 7.70554 3.05221C7.75055 3.05221 31.3753 3.04642 31.3753 3.04642C33.8982 3.04642 35.9507 5.09895 35.9507 7.62185V9.22122C35.9509 10.0625 36.6328 10.7444 37.4741 10.7444ZM7.61902 15.2379H31.3754C33.8982 15.2379 35.9508 17.2904 35.9508 19.8133V31.3782C35.9508 33.9011 33.8982 35.9536 31.3754 35.9536H9.1481C5.7853 35.9536 3.04946 33.2177 3.04946 29.8549V13.7209C4.32348 14.6752 5.90648 15.2379 7.61902 15.2379ZM32.9044 25.5957C32.9044 26.6473 32.052 27.4998 31.0004 27.4998C28.4748 27.3995 28.4755 23.7916 31.0004 23.6917C32.052 23.6917 32.9044 24.5442 32.9044 25.5957ZM32.9044 7.62185C32.9044 6.78058 32.2225 6.09863 31.3812 6.09863H7.6191C5.5981 6.17906 5.59962 9.06532 7.6191 9.14506H31.3812C32.2224 9.14506 32.9044 8.46311 32.9044 7.62185Z" fill="#C780B6"/>
</g>
<defs>
<clipPath id="clip0_42_65">
<rect width="39" height="39" fill="white"/>
</clipPath>
</defs>
</svg>
