<svg width="39" height="39" viewBox="0 0 39 39" fill="none" xmlns="http://www.w3.org/2000/svg">
<g clip-path="url(#clip0_47_102)">
<path d="M28.3244 39C25.8043 39 23.754 36.9497 23.754 34.4297H21.4213C20.885 34.4297 20.3451 34.3886 19.8164 34.3072C18.9848 34.1793 18.4144 33.4014 18.5423 32.5699C18.6702 31.7383 19.448 31.1678 20.2796 31.2957C20.6555 31.3536 21.0397 31.3829 21.4213 31.3829H25.2775C26.1189 31.3829 26.8009 32.0648 26.8009 32.9062V34.4297C26.8009 35.2697 27.4843 35.9532 28.3244 35.9532C28.6568 35.9532 28.9723 35.8484 29.2369 35.65L35.3304 31.0798C35.7187 30.7886 35.9414 30.3438 35.9414 29.8595C35.9414 29.3752 35.7187 28.9303 35.3303 28.639L29.2366 24.0687C28.9722 23.8705 28.6567 23.7656 28.3243 23.7656C27.4843 23.7656 26.8008 24.449 26.8008 25.2891V26.8125C26.8008 27.6539 26.1188 28.3358 25.2774 28.3358H22.7306C21.8892 28.3358 21.2072 27.6539 21.2072 26.8125C21.2072 25.9711 21.8892 25.2891 22.7306 25.2891H23.754C23.754 22.769 25.8042 20.7188 28.3243 20.7188C29.3209 20.7188 30.2685 21.0342 31.0645 21.631L37.1585 26.2014C38.3213 27.0737 38.9882 28.4069 38.9882 29.8594C38.9882 31.3118 38.3213 32.6451 37.1585 33.5172L31.0647 38.0875C30.2686 38.6846 29.321 39 28.3244 39Z" fill="#C780B6"/>
<path d="M6.49593 13.7109H4.55857C1.83299 13.7109 0.0117188 11.6509 0.0117188 9.14062C0.0117188 6.62231 1.84068 4.57031 4.55857 4.57031H7.8054C8.34134 4.57031 8.88117 4.61152 9.40996 4.6928C10.2415 4.82069 10.8121 5.59848 10.6842 6.43005C10.5564 7.26169 9.77832 7.83207 8.94698 7.70433C8.57085 7.64651 8.18686 7.61719 7.8054 7.61719H4.55857C3.56811 7.61719 3.05859 8.26282 3.05859 9.14062C3.05859 9.39504 3.13096 10.6641 4.55857 10.6641H6.496C7.3374 10.6641 8.01944 11.3461 8.01944 12.1875C8.01944 13.0289 7.33732 13.7109 6.49593 13.7109Z" fill="#C780B6"/>
<path d="M7.8054 35.0391H4.55857C1.83299 35.0391 0.0117188 32.9791 0.0117188 30.4688C0.0117188 27.9504 1.84068 25.8984 4.55857 25.8984H7.8054C8.55767 25.8984 9.20589 25.3358 9.31307 24.5897L10.8661 13.7259C11.6107 8.50657 16.1484 4.57031 21.4211 4.57031H23.7539C23.7539 2.05024 25.8041 0 28.3242 0C29.3208 0 30.2683 0.315428 31.0644 0.912311C31.0644 0.912235 31.0645 0.912311 31.0644 0.912311L37.1584 5.48278C38.3212 6.35502 38.9881 7.68826 38.9881 9.1407C38.9881 10.5931 38.3212 11.9264 37.1584 12.7986L31.0646 17.3689C30.2683 17.9658 29.3208 18.2812 28.3242 18.2812C25.8041 18.2812 23.7539 16.231 23.7539 13.7109H21.4211C20.6688 13.7109 20.0206 14.2735 19.9134 15.0196L18.3604 25.8834C17.6157 31.1028 13.078 35.0391 7.8054 35.0391ZM4.55857 28.9453C3.13088 28.9453 3.05859 30.2143 3.05859 30.4688C3.05859 30.7232 3.13088 31.9922 4.55857 31.9922H7.8054C11.5713 31.9922 14.8122 29.1808 15.3441 25.4527L16.8973 14.5874C17.2189 12.3502 19.1635 10.6641 21.4211 10.6641H25.2773C26.1187 10.6641 26.8008 11.3461 26.8008 12.1875V13.7109C26.8008 14.551 27.4842 15.2344 28.3242 15.2344C28.6566 15.2344 28.9721 15.1296 29.2367 14.9311L35.3303 10.361C35.7186 10.0698 35.9412 9.62493 35.9412 9.14062C35.9412 8.65632 35.7185 8.21148 35.3302 7.9202L29.2364 3.34989C28.972 3.15169 28.6565 3.04688 28.3242 3.04688C27.4842 3.04688 26.8008 3.73029 26.8008 4.57031V6.09375C26.8008 6.93514 26.1187 7.61719 25.2773 7.61719H21.4211C17.6553 7.61719 14.4143 10.4285 13.8824 14.1567L12.3291 25.022C12.0076 27.2592 10.0629 28.9453 7.8054 28.9453H4.55857Z" fill="#C780B6"/>
</g>
<defs>
<clipPath id="clip0_47_102">
<rect width="39" height="39" fill="white"/>
</clipPath>
</defs>
</svg>
