<svg width="39" height="39" viewBox="0 0 39 39" fill="none" xmlns="http://www.w3.org/2000/svg">
<g clip-path="url(#clip0_47_88)">
<path d="M25.2891 39C22.8398 39 20.4352 38.3458 18.3356 37.1082C16.2991 35.9077 14.5971 34.1917 13.4134 32.1457C12.9922 31.4173 13.241 30.4854 13.9693 30.0641C14.6977 29.6428 15.6296 29.8917 16.0509 30.6199C17.9537 33.9096 21.4937 35.9531 25.2891 35.9531C31.1693 35.9531 35.9532 31.1692 35.9532 25.2891C35.9532 19.4089 31.1693 14.625 25.2891 14.625H16.1485C15.3071 14.625 14.6251 13.943 14.6251 13.1016C14.6251 12.2602 15.3071 11.5781 16.1485 11.5781H25.2891C32.8494 11.5781 39.0001 17.7289 39.0001 25.2891C39.0001 32.8493 32.8494 39 25.2891 39Z" fill="#C780B6"/>
<path d="M22.8516 27.4219H13.7109C6.15073 27.4219 0 21.2711 0 13.7109C0 6.15073 6.15073 0 13.7109 0C16.1603 0 18.5649 0.654164 20.6645 1.8918C22.701 3.09227 24.403 4.80827 25.5867 6.85433C26.0079 7.58268 25.7591 8.51457 25.0308 8.93587C24.3025 9.35718 23.3704 9.10833 22.9492 8.38005C21.0464 5.09041 17.5064 3.04688 13.7109 3.04688C7.83077 3.04688 3.04688 7.83077 3.04688 13.7109C3.04688 19.5911 7.83077 24.375 13.7109 24.375H22.8516C23.693 24.375 24.375 25.057 24.375 25.8984C24.375 26.7398 23.693 27.4219 22.8516 27.4219Z" fill="#C780B6"/>
<path d="M12.7239 19.546L9.96023 16.5879C9.16682 15.7387 8.72998 14.6307 8.72998 13.4683C8.72998 12.3058 9.16682 11.198 9.96015 10.3487L12.7239 7.39062C13.2983 6.77584 14.2624 6.74308 14.8771 7.31749C15.4919 7.89191 15.5247 8.85594 14.9503 9.47072L12.1866 12.4288C11.9224 12.7116 11.7768 13.0809 11.7768 13.4683C11.7768 13.8558 11.9224 14.225 12.1866 14.5079L14.9503 17.4659C15.5247 18.0807 15.4919 19.0448 14.8771 19.6192C14.2623 20.1936 13.2983 20.1607 12.7239 19.546Z" fill="#C780B6"/>
<path d="M24.0689 31.7365C23.4541 31.1621 23.4213 30.1981 23.9957 29.5833L26.7594 26.6252C27.0236 26.3423 27.1692 25.9731 27.1692 25.5856C27.1692 25.1981 27.0236 24.8289 26.7594 24.546L23.9957 21.588C23.4213 20.9732 23.4541 20.0091 24.0689 19.4348C24.6836 18.8603 25.6476 18.893 26.2222 19.5079L28.9858 22.466C29.7792 23.3153 30.2161 24.4232 30.2161 25.5856C30.2161 26.7481 29.7792 27.856 28.9858 28.7052L26.2222 31.6633C25.6478 32.2782 24.6837 32.3109 24.0689 31.7365Z" fill="#C780B6"/>
</g>
<defs>
<clipPath id="clip0_47_88">
<rect width="39" height="39" fill="white"/>
</clipPath>
</defs>
</svg>
