<svg width="39" height="39" viewBox="0 0 39 39" fill="none" xmlns="http://www.w3.org/2000/svg">
<g clip-path="url(#clip0_42_82)">
<mask id="mask0_42_82" style="mask-type:luminance" maskUnits="userSpaceOnUse" x="0" y="0" width="39" height="39">
<path d="M39 0H0V39H39V0Z" fill="white"/>
</mask>
<g mask="url(#mask0_42_82)">
<path d="M14.1404 32.8802C13.7435 32.8802 13.3579 32.7248 13.0705 32.4401C12.7125 32.0856 12.5534 31.5767 12.6456 31.0814L13.4424 26.8015C13.4436 26.7949 13.4449 26.7883 13.4462 26.7817C13.8732 24.6455 14.9132 22.7021 16.4537 21.1617L23.3651 14.2104C25.4341 12.0539 29.1484 12.0535 31.2166 14.2073C33.3696 16.2731 33.3696 19.9901 31.2166 22.0557L24.3051 29.007C22.7616 30.5505 20.8183 31.5904 18.682 32.0174L14.4332 32.8516C14.3358 32.8709 14.2377 32.8802 14.1404 32.8802ZM16.43 27.3686L16.045 29.4364L18.0911 29.0347C19.6315 28.7268 21.0374 27.9744 22.1518 26.86L29.0633 19.9087C30.0401 18.9717 30.0406 17.2941 29.0664 16.3578C28.1326 15.3845 26.4522 15.3845 25.5185 16.3578L18.607 23.309C17.4917 24.4242 16.7401 25.8268 16.43 27.3686ZM29.8772 38.9621H9.12281C4.09249 38.9621 0 34.8696 0 29.8393V9.16089C0 4.13058 4.09249 0.0380859 9.12281 0.0380859H29.8772C34.9075 0.0380859 39 4.13058 39 9.16089V29.8393C39 34.8696 34.9075 38.9621 29.8772 38.9621ZM9.12281 3.07902C5.76926 3.07902 3.04094 5.80735 3.04094 9.16089V29.8393C3.04094 33.1928 5.76926 35.9212 9.12281 35.9212H29.8772C33.2307 35.9212 35.9591 33.1928 35.9591 29.8393V9.16089C35.9591 5.80735 33.2307 3.07902 29.8772 3.07902H9.12281ZM15.5088 10.2253V7.64042C15.4285 5.62307 12.5474 5.62459 12.4678 7.64042V10.2253C12.4678 11.4828 11.4447 12.506 10.1871 12.506H7.60234C5.58498 12.5862 5.5865 15.4673 7.60234 15.5469H10.1871C13.1215 15.5469 15.5088 13.1596 15.5088 10.2253Z" fill="#C780B6"/>
</g>
</g>
<defs>
<clipPath id="clip0_42_82">
<rect width="39" height="39" fill="white"/>
</clipPath>
</defs>
</svg>
