<svg width="20" height="19" viewBox="0 0 20 19" fill="none" xmlns="http://www.w3.org/2000/svg">
<g clip-path="url(#clip0_61_110)">
<path d="M19.1736 9.19765C19.1736 8.28098 18.312 7.73098 17.6245 7.31848C17.411 7.19788 17.2058 7.06313 17.0103 6.91515C17.0789 6.66689 17.1678 6.42468 17.2761 6.19098C17.5786 5.45765 17.9636 4.55015 17.4228 3.80765C16.882 3.06515 15.892 3.13848 15.0945 3.21181C14.8412 3.22964 14.5869 3.22964 14.3336 3.21181C14.2695 3.04681 14.187 2.70765 14.132 2.48765C13.9578 1.70848 13.7286 0.736814 12.8395 0.452647C11.9503 0.16848 11.2353 0.810147 10.6395 1.32348C10.4426 1.51947 10.2311 1.70027 10.007 1.86431C9.78438 1.71495 9.57298 1.54951 9.3745 1.36931C8.77866 0.85598 8.03616 0.214314 7.17449 0.49848C6.31283 0.782647 6.05616 1.73598 5.88199 2.51515C5.82699 2.73515 5.74449 3.07431 5.68033 3.23931C5.42703 3.25714 5.17279 3.25714 4.91949 3.23931C4.12199 3.16598 3.14116 3.08348 2.59116 3.83515C2.04116 4.58681 2.43533 5.48515 2.73783 6.21848C2.84612 6.45218 2.93503 6.69439 3.00366 6.94265C2.80816 7.09063 2.60298 7.22538 2.38949 7.34598C1.70199 7.73098 0.840332 8.28098 0.840332 9.19765C0.840332 10.1143 1.70199 10.6643 2.38949 11.0768C2.60298 11.1974 2.80816 11.3322 3.00366 11.4801C2.93503 11.7284 2.84612 11.9706 2.73783 12.2043C2.43533 12.9376 2.05033 13.8451 2.59116 14.5876C3.13199 15.3301 4.12199 15.2568 4.91949 15.1835C5.17279 15.1656 5.42703 15.1656 5.68033 15.1835C5.74449 15.3485 5.82699 15.6876 5.88199 15.9076C6.05616 16.6868 6.28533 17.6585 7.17449 17.9426C8.06366 18.2268 8.77866 17.5851 9.3745 17.026C9.57298 16.8458 9.78438 16.6803 10.007 16.531C10.2296 16.6803 10.441 16.8458 10.6395 17.026C11.1056 17.5268 11.7307 17.8507 12.4086 17.9426C12.5551 17.9399 12.7003 17.9151 12.8395 17.8693C13.7561 17.5851 13.9578 16.6135 14.132 15.8343C14.187 15.6143 14.2695 15.2751 14.3336 15.1101C14.5869 15.0923 14.8412 15.0923 15.0945 15.1101C15.892 15.1835 16.8728 15.266 17.4228 14.5143C17.9728 13.7626 17.5786 12.8643 17.2761 12.131C17.1678 11.8973 17.0789 11.6551 17.0103 11.4068C17.2058 11.2588 17.411 11.1241 17.6245 11.0035C18.312 10.6643 19.1736 10.1143 19.1736 9.19765ZM13.472 7.47431L9.80533 12.0576C9.7259 12.1587 9.62609 12.242 9.51238 12.302C9.39868 12.362 9.27362 12.3975 9.14533 12.406H9.09033C8.96969 12.4067 8.8501 12.3836 8.73841 12.3379C8.62673 12.2923 8.52515 12.2251 8.43949 12.1401L6.60616 10.3068C6.43355 10.1342 6.33658 9.90009 6.33658 9.65598C6.33658 9.41187 6.43355 9.17776 6.60616 9.00515C6.77877 8.83254 7.01289 8.73556 7.25699 8.73556C7.5011 8.73556 7.73522 8.83254 7.90783 9.00515L9.017 10.1143L12.042 6.33765C12.1996 6.17065 12.4142 6.0689 12.6432 6.05253C12.8723 6.03617 13.0992 6.10638 13.2789 6.24928C13.4587 6.39218 13.5783 6.59735 13.6141 6.8242C13.6498 7.05106 13.5991 7.28306 13.472 7.47431Z" fill="#C780B6"/>
</g>
<defs>
<clipPath id="clip0_61_110">
<rect width="20" height="19" fill="white"/>
</clipPath>
</defs>
</svg>
