<svg width="30" height="30" viewBox="0 0 30 30" fill="none" xmlns="http://www.w3.org/2000/svg">
<path d="M13.62 0.0626858C7.29429 0.648848 2.0004 5.16815 0.464405 11.2935C-1.5699 19.3767 3.26671 27.5185 11.3043 29.5408C17.4834 31.0941 23.9381 28.6264 27.4674 23.3568C30.8442 18.3158 30.8442 11.698 27.4674 6.65114C26.4121 5.07437 24.9289 3.59138 23.3519 2.53629C20.5202 0.637124 17.0144 -0.253842 13.62 0.0626858ZM10.2607 8.59134C10.3663 8.6441 11.4743 9.70505 12.7289 10.9477L14.9977 13.2103L17.2724 10.9477C18.5211 9.70505 19.635 8.63823 19.7464 8.57962C19.8754 8.51514 20.0805 8.47411 20.3033 8.46825C21.0127 8.46825 21.5345 8.98993 21.5345 9.69919C21.5286 9.92193 21.4876 10.1271 21.4231 10.256C21.3644 10.3674 20.2975 11.4811 19.0546 12.7296L16.7916 15.004L19.0546 17.2724C20.2975 18.5268 21.3644 19.6405 21.4231 19.7519C21.4876 19.8808 21.5286 20.086 21.5345 20.3087C21.5345 21.018 21.0127 21.5397 20.3033 21.5397C20.0805 21.5338 19.8754 21.4928 19.7464 21.4283C19.635 21.3697 18.5211 20.3029 17.2724 19.0602L14.9977 16.7917L12.7289 19.0602C11.4743 20.3029 10.3604 21.3697 10.249 21.4283C10.12 21.4928 9.91486 21.5338 9.69208 21.5397C8.98271 21.5397 8.46094 21.018 8.46094 20.3087C8.4668 20.086 8.50784 19.8808 8.57233 19.7519C8.63096 19.6405 9.69794 18.5268 10.9408 17.2724L13.2038 15.004L10.9408 12.7296C9.69794 11.4811 8.63096 10.3674 8.57233 10.256C8.50784 10.1271 8.4668 9.92193 8.46094 9.69919C8.46094 9.13061 8.80097 8.6734 9.35791 8.49169C9.57483 8.42135 10.0262 8.46825 10.2607 8.59134Z" fill="white"/>
</svg>
